# Blender 5.1.0
# www.blender.org
mtllib dokann.mtl
o 円柱.001
v 0.000000 7.135962 -1.750767
v 0.000000 8.286853 -1.750767
v 0.341558 7.135962 -1.717127
v 0.341558 8.286853 -1.717127
v 0.669990 7.135962 -1.617498
v 0.669990 8.286853 -1.617498
v 0.972674 7.135962 -1.455710
v 0.972674 8.286853 -1.455710
v 1.237979 7.135962 -1.237979
v 1.237979 8.286853 -1.237979
v 1.455710 7.135962 -0.972674
v 1.455710 8.286853 -0.972674
v 1.617498 7.135962 -0.669990
v 1.617498 8.286853 -0.669990
v 1.717127 7.135962 -0.341558
v 1.717127 8.286853 -0.341558
v 1.750767 7.135962 0.000000
v 1.750767 8.286853 0.000000
v 1.717127 7.135962 0.341558
v 1.717127 8.286853 0.341558
v 1.617498 7.135962 0.669990
v 1.617498 8.286853 0.669990
v 1.455710 7.135962 0.972674
v 1.455710 8.286853 0.972674
v 1.237979 7.135962 1.237979
v 1.237979 8.286853 1.237979
v 0.972674 7.135962 1.455710
v 0.972674 8.286853 1.455710
v 0.669990 7.135962 1.617498
v 0.669990 8.286853 1.617498
v 0.341558 7.135962 1.717127
v 0.341558 8.286853 1.717127
v 0.000000 7.135962 1.750767
v 0.000000 8.286853 1.750767
v -0.341558 7.135962 1.717127
v -0.341558 8.286853 1.717127
v -0.669990 7.135962 1.617498
v -0.669990 8.286853 1.617498
v -0.972674 7.135962 1.455710
v -0.972674 8.286853 1.455710
v -1.237979 7.135962 1.237979
v -1.237979 8.286853 1.237979
v -1.455710 7.135962 0.972674
v -1.455710 8.286853 0.972674
v -1.617498 7.135962 0.669990
v -1.617498 8.286853 0.669990
v -1.717127 7.135962 0.341558
v -1.717127 8.286853 0.341558
v -1.750767 7.135962 0.000000
v -1.750767 8.286853 0.000000
v -1.717127 7.135962 -0.341558
v -1.717127 8.286853 -0.341558
v -1.617498 7.135962 -0.669990
v -1.617498 8.286853 -0.669990
v -1.455710 7.135962 -0.972674
v -1.455710 8.286853 -0.972674
v -1.237979 7.135962 -1.237979
v -1.237979 8.286853 -1.237979
v -0.972674 7.135962 -1.455710
v -0.972674 8.286853 -1.455710
v -0.669990 7.135962 -1.617498
v -0.669990 8.286853 -1.617498
v -0.341558 7.135962 -1.717127
v -0.341558 8.286853 -1.717127
v 0.000000 -0.568219 -1.452570
v 0.000000 7.993019 -1.452570
v 0.283382 -0.568219 -1.424659
v 0.283382 7.993019 -1.424659
v 0.555875 -0.568219 -1.342000
v 0.555875 7.993019 -1.342000
v 0.807005 -0.568219 -1.207768
v 0.807005 7.993019 -1.207768
v 1.027122 -0.568219 -1.027122
v 1.027122 7.993019 -1.027122
v 1.207768 -0.568219 -0.807005
v 1.207768 7.993019 -0.807005
v 1.342000 -0.568219 -0.555875
v 1.342000 7.993019 -0.555875
v 1.424659 -0.568219 -0.283382
v 1.424659 7.993019 -0.283382
v 1.452570 -0.568219 0.000000
v 1.452570 7.993019 0.000000
v 1.424659 -0.568219 0.283382
v 1.424659 7.993019 0.283382
v 1.342000 -0.568219 0.555875
v 1.342000 7.993019 0.555875
v 1.207768 -0.568219 0.807005
v 1.207768 7.993019 0.807005
v 1.027122 -0.568219 1.027122
v 1.027122 7.993019 1.027122
v 0.807005 -0.568219 1.207768
v 0.807005 7.993019 1.207768
v 0.555875 -0.568219 1.342000
v 0.555875 7.993019 1.342000
v 0.283382 -0.568219 1.424659
v 0.283382 7.993019 1.424659
v 0.000000 -0.568219 1.452570
v 0.000000 7.993019 1.452570
v -0.283382 -0.568219 1.424659
v -0.283382 7.993019 1.424659
v -0.555875 -0.568219 1.342000
v -0.555875 7.993019 1.342000
v -0.807005 -0.568219 1.207768
v -0.807005 7.993019 1.207768
v -1.027122 -0.568219 1.027122
v -1.027122 7.993019 1.027122
v -1.207768 -0.568219 0.807005
v -1.207768 7.993019 0.807005
v -1.342000 -0.568219 0.555875
v -1.342000 7.993019 0.555875
v -1.424659 -0.568219 0.283382
v -1.424659 7.993019 0.283382
v -1.452570 -0.568219 0.000000
v -1.452570 7.993019 0.000000
v -1.424659 -0.568219 -0.283382
v -1.424659 7.993019 -0.283382
v -1.342000 -0.568219 -0.555875
v -1.342000 7.993019 -0.555875
v -1.207768 -0.568219 -0.807005
v -1.207768 7.993019 -0.807005
v -1.027122 -0.568219 -1.027122
v -1.027122 7.993019 -1.027122
v -0.807005 -0.568219 -1.207768
v -0.807005 7.993019 -1.207768
v -0.555875 -0.568219 -1.342000
v -0.555875 7.993019 -1.342000
v -0.283382 -0.568219 -1.424659
v -0.283382 7.993019 -1.424659
vn 0.0980 -0.0000 -0.9952
vn 0.2903 -0.0000 -0.9569
vn 0.4714 -0.0000 -0.8819
vn 0.6344 -0.0000 -0.7730
vn 0.7730 -0.0000 -0.6344
vn 0.8819 -0.0000 -0.4714
vn 0.9569 -0.0000 -0.2903
vn 0.9952 -0.0000 -0.0980
vn 0.9952 -0.0000 0.0980
vn 0.9569 -0.0000 0.2903
vn 0.8819 -0.0000 0.4714
vn 0.7730 -0.0000 0.6344
vn 0.6344 -0.0000 0.7730
vn 0.4714 -0.0000 0.8819
vn 0.2903 -0.0000 0.9569
vn 0.0980 -0.0000 0.9952
vn -0.0980 -0.0000 0.9952
vn -0.2903 -0.0000 0.9569
vn -0.4714 -0.0000 0.8819
vn -0.6344 -0.0000 0.7730
vn -0.7730 -0.0000 0.6344
vn -0.8819 -0.0000 0.4714
vn -0.9569 -0.0000 0.2903
vn -0.9952 -0.0000 0.0980
vn -0.9952 -0.0000 -0.0980
vn -0.9569 -0.0000 -0.2903
vn -0.8819 -0.0000 -0.4714
vn -0.7730 -0.0000 -0.6344
vn -0.6344 -0.0000 -0.7730
vn -0.4714 -0.0000 -0.8819
vn -0.0000 1.0000 -0.0000
vn -0.2903 -0.0000 -0.9569
vn -0.0980 -0.0000 -0.9952
vn -0.0000 -1.0000 -0.0000
vt 0.349999 0.758420
vt 0.363175 0.892851
vt 0.349999 0.892851
vt 0.363175 0.758420
vt 0.376098 0.892851
vt 0.376098 0.758420
vt 0.388272 0.892851
vt 0.388272 0.758420
vt 0.399228 0.892851
vt 0.447729 0.000000
vt 0.458685 0.134430
vt 0.447729 0.134430
vt 0.458685 0.000000
vt 0.470858 0.134430
vt 0.470858 0.000000
vt 0.483782 0.134430
vt 0.483782 0.000000
vt 0.496958 0.134430
vt 0.496958 0.000000
vt 0.509881 0.134430
vt 0.509881 0.000000
vt 0.522055 0.134430
vt 0.522055 0.000000
vt 0.533011 0.134430
vt 0.313946 0.267566
vt 0.323263 0.401997
vt 0.313946 0.401997
vt 0.323263 0.267566
vt 0.334219 0.401997
vt 0.334219 0.267566
vt 0.346392 0.401997
vt 0.346392 0.267566
vt 0.359316 0.401997
vt 0.359316 0.267566
vt 0.372492 0.401997
vt 0.372492 0.267566
vt 0.385416 0.401997
vt 0.385416 0.267566
vt 0.397589 0.401997
vt 0.397589 0.267566
vt 0.408545 0.401997
vt 0.408545 0.267566
vt 0.417862 0.401997
vt 0.323263 0.536427
vt 0.313946 0.536427
vt 0.334219 0.536427
vt 0.346392 0.536427
vt 0.359316 0.536427
vt 0.372492 0.536427
vt 0.385416 0.536427
vt 0.397589 0.536427
vt 0.397589 0.401997
vt 0.408545 0.536427
vt 0.417862 0.536427
vt 0.313946 0.758420
vt 0.324902 0.892851
vt 0.313946 0.892851
vt 0.412523 0.007613
vt 0.440116 0.098577
vt 0.349152 0.126170
vt 0.324902 0.758420
vt 0.337075 0.892851
vt 0.337075 0.758420
vt 0.423478 0.148717
vt 0.432796 0.243316
vt 0.338197 0.252633
vt 0.037642 -0.000000
vt 0.048574 1.000000
vt 0.037642 1.000000
vt 0.048574 -0.000000
vt 0.059297 1.000000
vt 0.059297 -0.000000
vt 0.069397 1.000000
vt 0.069397 -0.000000
vt 0.078486 1.000000
vt 0.078486 -0.000000
vt 0.087576 1.000000
vt 0.087576 -0.000000
vt 0.097676 1.000000
vt 0.097676 -0.000000
vt 0.108398 1.000000
vt 0.108398 -0.000000
vt 0.119331 1.000000
vt 0.119331 -0.000000
vt 0.130053 1.000000
vt 0.130053 -0.000000
vt 0.140153 1.000000
vt 0.140153 -0.000000
vt 0.149243 1.000000
vt 0.149243 -0.000000
vt 0.156973 1.000000
vt 0.156973 -0.000000
vt 0.166063 1.000000
vt 0.166063 -0.000000
vt 0.176163 1.000000
vt 0.176163 -0.000000
vt 0.186885 1.000000
vt 0.186885 -0.000000
vt 0.197817 1.000000
vt 0.197817 -0.000000
vt 0.208539 1.000000
vt 0.208539 -0.000000
vt 0.218639 1.000000
vt 0.218639 -0.000000
vt 0.227729 1.000000
vt 0.227729 -0.000000
vt 0.235459 1.000000
vt 0.235459 -0.000000
vt 0.243190 1.000000
vt 0.243190 -0.000000
vt 0.252280 1.000000
vt 0.252280 -0.000000
vt 0.262380 1.000000
vt 0.262380 -0.000000
vt 0.273102 1.000000
vt 0.273102 -0.000000
vt 0.284034 1.000000
vt 0.284034 -0.000000
vt 0.294756 1.000000
vt 0.294756 -0.000000
vt 0.304856 1.000000
vt 0.304856 -0.000000
vt 0.313946 1.000000
vt 0.000000 -0.000000
vt 0.007730 1.000000
vt 0.000000 1.000000
vt 0.007730 -0.000000
vt 0.016820 1.000000
vt 0.412553 0.556547
vt 0.404822 0.635034
vt 0.326336 0.627303
vt 0.016820 -0.000000
vt 0.026920 1.000000
vt 0.026920 -0.000000
vt 0.418626 0.676634
vt 0.395733 0.752104
vt 0.320262 0.729210
vt 0.399228 0.758420
vt 0.533011 0.000000
vt 0.417862 0.267566
vt 0.338197 0.118850
vt 0.328879 0.109532
vt 0.321559 0.098577
vt 0.316517 0.086403
vt 0.313946 0.073480
vt 0.313946 0.060303
vt 0.316517 0.047380
vt 0.321559 0.035207
vt 0.328879 0.024251
vt 0.338197 0.014933
vt 0.349152 0.007613
vt 0.361326 0.002571
vt 0.374249 0.000000
vt 0.387426 0.000000
vt 0.400349 0.002571
vt 0.423478 0.014933
vt 0.445158 0.047380
vt 0.432796 0.024251
vt 0.440116 0.035207
vt 0.447729 0.060303
vt 0.447729 0.073480
vt 0.445158 0.086403
vt 0.432796 0.109532
vt 0.400349 0.131212
vt 0.423478 0.118850
vt 0.412523 0.126170
vt 0.387426 0.133783
vt 0.374249 0.133783
vt 0.361326 0.131212
vt 0.328879 0.243316
vt 0.321559 0.232360
vt 0.316517 0.220186
vt 0.313946 0.207263
vt 0.313946 0.194086
vt 0.316517 0.181163
vt 0.321559 0.168990
vt 0.328879 0.158034
vt 0.338197 0.148717
vt 0.349152 0.141396
vt 0.361326 0.136354
vt 0.374249 0.133783
vt 0.387426 0.133783
vt 0.400349 0.136354
vt 0.412523 0.141396
vt 0.432796 0.158034
vt 0.440116 0.168990
vt 0.445158 0.181163
vt 0.447729 0.194086
vt 0.447729 0.207263
vt 0.445158 0.220186
vt 0.440116 0.232360
vt 0.423478 0.252633
vt 0.412523 0.259953
vt 0.400349 0.264996
vt 0.387426 0.267566
vt 0.374249 0.267566
vt 0.361326 0.264996
vt 0.349152 0.259953
vt 0.313946 -0.000000
vt 0.320262 0.618214
vt 0.316079 0.608114
vt 0.313946 0.597391
vt 0.313946 0.586459
vt 0.316079 0.575737
vt 0.320262 0.565637
vt 0.326336 0.556547
vt 0.334066 0.548817
vt 0.343156 0.542743
vt 0.374910 0.536427
vt 0.353256 0.538560
vt 0.363978 0.536427
vt 0.385633 0.538560
vt 0.395733 0.542743
vt 0.404822 0.548817
vt 0.418626 0.565637
vt 0.424943 0.597391
vt 0.422810 0.575737
vt 0.424943 0.586459
vt 0.422810 0.608114
vt 0.418626 0.618214
vt 0.412553 0.627303
vt 0.395733 0.641107
vt 0.385633 0.645291
vt 0.374910 0.647424
vt 0.363978 0.647424
vt 0.353256 0.645291
vt 0.343156 0.641107
vt 0.334066 0.635034
vt 0.316079 0.719110
vt 0.313946 0.708388
vt 0.313946 0.697456
vt 0.316079 0.686734
vt 0.320262 0.676634
vt 0.326336 0.667544
vt 0.334066 0.659814
vt 0.343156 0.653740
vt 0.353256 0.649556
vt 0.363978 0.647424
vt 0.374910 0.647424
vt 0.385633 0.649556
vt 0.395733 0.653740
vt 0.404822 0.659814
vt 0.412553 0.667544
vt 0.422810 0.686734
vt 0.424943 0.697456
vt 0.424943 0.708388
vt 0.422810 0.719110
vt 0.418626 0.729210
vt 0.412553 0.738300
vt 0.404822 0.746030
vt 0.385633 0.756288
vt 0.374910 0.758420
vt 0.363978 0.758420
vt 0.353256 0.756288
vt 0.343156 0.752104
vt 0.334066 0.746030
vt 0.326336 0.738300
s 0
usemtl Material.001
f 2/1/1 3/2/1 1/3/1
f 4/4/2 5/5/2 3/2/2
f 6/6/3 7/7/3 5/5/3
f 8/8/4 9/9/4 7/7/4
f 10/10/5 11/11/5 9/12/5
f 12/13/6 13/14/6 11/11/6
f 14/15/7 15/16/7 13/14/7
f 16/17/8 17/18/8 15/16/8
f 18/19/9 19/20/9 17/18/9
f 20/21/10 21/22/10 19/20/10
f 22/23/11 23/24/11 21/22/11
f 24/25/12 25/26/12 23/27/12
f 26/28/13 27/29/13 25/26/13
f 28/30/14 29/31/14 27/29/14
f 30/32/15 31/33/15 29/31/15
f 32/34/16 33/35/16 31/33/16
f 34/36/17 35/37/17 33/35/17
f 36/38/18 37/39/18 35/37/18
f 38/40/19 39/41/19 37/39/19
f 40/42/20 41/43/20 39/41/20
f 42/27/21 43/44/21 41/45/21
f 44/26/22 45/46/22 43/44/22
f 46/29/23 47/47/23 45/46/23
f 48/31/24 49/48/24 47/47/24
f 50/33/25 51/49/25 49/48/25
f 52/35/26 53/50/26 51/49/26
f 54/37/27 55/51/27 53/50/27
f 56/52/28 57/53/28 55/51/28
f 58/41/29 59/54/29 57/53/29
f 60/55/30 61/56/30 59/57/30
f 38/58/31 22/59/31 6/60/31
f 62/61/32 63/62/32 61/56/32
f 64/63/33 1/3/33 63/62/33
f 31/64/34 47/65/34 63/66/34
f 66/67/1 67/68/1 65/69/1
f 68/70/2 69/71/2 67/68/2
f 70/72/3 71/73/3 69/71/3
f 72/74/4 73/75/4 71/73/4
f 74/76/5 75/77/5 73/75/5
f 76/78/6 77/79/6 75/77/6
f 78/80/7 79/81/7 77/79/7
f 80/82/8 81/83/8 79/81/8
f 82/84/9 83/85/9 81/83/9
f 84/86/10 85/87/10 83/85/10
f 86/88/11 87/89/11 85/87/11
f 88/90/12 89/91/12 87/89/12
f 90/92/13 91/93/13 89/91/13
f 92/94/14 93/95/14 91/93/14
f 94/96/15 95/97/15 93/95/15
f 96/98/16 97/99/16 95/97/16
f 98/100/17 99/101/17 97/99/17
f 100/102/18 101/103/18 99/101/18
f 102/104/19 103/105/19 101/103/19
f 104/106/20 105/107/20 103/105/20
f 106/108/21 107/109/21 105/107/21
f 108/110/22 109/111/22 107/109/22
f 110/112/23 111/113/23 109/111/23
f 112/114/24 113/115/24 111/113/24
f 114/116/25 115/117/25 113/115/25
f 116/118/26 117/119/26 115/117/26
f 118/120/27 119/121/27 117/119/27
f 120/122/28 121/123/28 119/121/28
f 122/124/29 123/125/29 121/126/29
f 124/127/30 125/128/30 123/125/30
f 102/129/31 86/130/31 70/131/31
f 126/132/32 127/133/32 125/128/32
f 128/134/33 65/69/33 127/133/33
f 95/135/34 111/136/34 127/137/34
f 2/1/1 4/4/1 3/2/1
f 4/4/2 6/6/2 5/5/2
f 6/6/3 8/8/3 7/7/3
f 8/8/4 10/138/4 9/9/4
f 10/10/5 12/13/5 11/11/5
f 12/13/6 14/15/6 13/14/6
f 14/15/7 16/17/7 15/16/7
f 16/17/8 18/19/8 17/18/8
f 18/19/9 20/21/9 19/20/9
f 20/21/10 22/23/10 21/22/10
f 22/23/11 24/139/11 23/24/11
f 24/25/12 26/28/12 25/26/12
f 26/28/13 28/30/13 27/29/13
f 28/30/14 30/32/14 29/31/14
f 30/32/15 32/34/15 31/33/15
f 32/34/16 34/36/16 33/35/16
f 34/36/17 36/38/17 35/37/17
f 36/38/18 38/40/18 37/39/18
f 38/40/19 40/42/19 39/41/19
f 40/42/20 42/140/20 41/43/20
f 42/27/21 44/26/21 43/44/21
f 44/26/22 46/29/22 45/46/22
f 46/29/23 48/31/23 47/47/23
f 48/31/24 50/33/24 49/48/24
f 50/33/25 52/35/25 51/49/25
f 52/35/26 54/37/26 53/50/26
f 54/37/27 56/52/27 55/51/27
f 56/52/28 58/41/28 57/53/28
f 58/41/29 60/43/29 59/54/29
f 60/55/30 62/61/30 61/56/30
f 6/60/31 4/141/31 2/142/31
f 2/142/31 64/143/31 6/60/31
f 64/143/31 62/144/31 6/60/31
f 62/144/31 60/145/31 58/146/31
f 58/146/31 56/147/31 54/148/31
f 54/148/31 52/149/31 50/150/31
f 50/150/31 48/151/31 54/148/31
f 48/151/31 46/152/31 54/148/31
f 46/152/31 44/153/31 42/154/31
f 42/154/31 40/155/31 38/58/31
f 38/58/31 36/156/31 30/157/31
f 36/156/31 34/158/31 30/157/31
f 34/158/31 32/159/31 30/157/31
f 30/157/31 28/160/31 26/161/31
f 26/161/31 24/162/31 22/59/31
f 22/59/31 20/163/31 14/164/31
f 20/163/31 18/165/31 14/164/31
f 18/165/31 16/166/31 14/164/31
f 14/164/31 12/167/31 10/168/31
f 10/168/31 8/169/31 6/60/31
f 62/144/31 58/146/31 6/60/31
f 58/146/31 54/148/31 6/60/31
f 46/152/31 42/154/31 54/148/31
f 42/154/31 38/58/31 54/148/31
f 30/157/31 26/161/31 38/58/31
f 26/161/31 22/59/31 38/58/31
f 14/164/31 10/168/31 22/59/31
f 10/168/31 6/60/31 22/59/31
f 6/60/31 54/148/31 38/58/31
f 62/61/32 64/63/32 63/62/32
f 64/63/33 2/1/33 1/3/33
f 63/66/34 1/170/34 3/171/34
f 3/171/34 5/172/34 7/173/34
f 7/173/34 9/174/34 11/175/34
f 11/175/34 13/176/34 15/177/34
f 15/177/34 17/178/34 19/179/34
f 19/179/34 21/180/34 23/181/34
f 23/181/34 25/182/34 27/183/34
f 27/183/34 29/184/34 31/64/34
f 31/64/34 33/185/34 35/186/34
f 35/186/34 37/187/34 39/188/34
f 39/188/34 41/189/34 43/190/34
f 43/190/34 45/191/34 47/65/34
f 47/65/34 49/192/34 51/193/34
f 51/193/34 53/194/34 55/195/34
f 55/195/34 57/196/34 59/197/34
f 59/197/34 61/198/34 63/66/34
f 63/66/34 3/171/34 15/177/34
f 3/171/34 7/173/34 15/177/34
f 7/173/34 11/175/34 15/177/34
f 15/177/34 19/179/34 31/64/34
f 19/179/34 23/181/34 31/64/34
f 23/181/34 27/183/34 31/64/34
f 31/64/34 35/186/34 47/65/34
f 35/186/34 39/188/34 47/65/34
f 39/188/34 43/190/34 47/65/34
f 47/65/34 51/193/34 63/66/34
f 51/193/34 55/195/34 63/66/34
f 55/195/34 59/197/34 63/66/34
f 63/66/34 15/177/34 31/64/34
f 66/67/1 68/70/1 67/68/1
f 68/70/2 70/72/2 69/71/2
f 70/72/3 72/74/3 71/73/3
f 72/74/4 74/76/4 73/75/4
f 74/76/5 76/78/5 75/77/5
f 76/78/6 78/80/6 77/79/6
f 78/80/7 80/82/7 79/81/7
f 80/82/8 82/84/8 81/83/8
f 82/84/9 84/86/9 83/85/9
f 84/86/10 86/88/10 85/87/10
f 86/88/11 88/90/11 87/89/11
f 88/90/12 90/92/12 89/91/12
f 90/92/13 92/94/13 91/93/13
f 92/94/14 94/96/14 93/95/14
f 94/96/15 96/98/15 95/97/15
f 96/98/16 98/100/16 97/99/16
f 98/100/17 100/102/17 99/101/17
f 100/102/18 102/104/18 101/103/18
f 102/104/19 104/106/19 103/105/19
f 104/106/20 106/108/20 105/107/20
f 106/108/21 108/110/21 107/109/21
f 108/110/22 110/112/22 109/111/22
f 110/112/23 112/114/23 111/113/23
f 112/114/24 114/116/24 113/115/24
f 114/116/25 116/118/25 115/117/25
f 116/118/26 118/120/26 117/119/26
f 118/120/27 120/122/27 119/121/27
f 120/122/28 122/199/28 121/123/28
f 122/124/29 124/127/29 123/125/29
f 124/127/30 126/132/30 125/128/30
f 70/131/31 68/200/31 66/201/31
f 66/201/31 128/202/31 70/131/31
f 128/202/31 126/203/31 70/131/31
f 126/203/31 124/204/31 122/205/31
f 122/205/31 120/206/31 118/207/31
f 118/207/31 116/208/31 110/209/31
f 116/208/31 114/210/31 110/209/31
f 114/210/31 112/211/31 110/209/31
f 110/209/31 108/212/31 106/213/31
f 106/213/31 104/214/31 102/129/31
f 102/129/31 100/215/31 94/216/31
f 100/215/31 98/217/31 94/216/31
f 98/217/31 96/218/31 94/216/31
f 94/216/31 92/219/31 90/220/31
f 90/220/31 88/221/31 86/130/31
f 86/130/31 84/222/31 82/223/31
f 82/223/31 80/224/31 78/225/31
f 78/225/31 76/226/31 74/227/31
f 74/227/31 72/228/31 70/131/31
f 126/203/31 122/205/31 118/207/31
f 110/209/31 106/213/31 102/129/31
f 94/216/31 90/220/31 86/130/31
f 86/130/31 82/223/31 70/131/31
f 82/223/31 78/225/31 70/131/31
f 78/225/31 74/227/31 70/131/31
f 70/131/31 126/203/31 118/207/31
f 118/207/31 110/209/31 102/129/31
f 102/129/31 94/216/31 86/130/31
f 70/131/31 118/207/31 102/129/31
f 126/132/32 128/134/32 127/133/32
f 128/134/33 66/67/33 65/69/33
f 127/137/34 65/229/34 67/230/34
f 67/230/34 69/231/34 71/232/34
f 71/232/34 73/233/34 75/234/34
f 75/234/34 77/235/34 79/236/34
f 79/236/34 81/237/34 83/238/34
f 83/238/34 85/239/34 87/240/34
f 87/240/34 89/241/34 91/242/34
f 91/242/34 93/243/34 95/135/34
f 95/135/34 97/244/34 99/245/34
f 99/245/34 101/246/34 103/247/34
f 103/247/34 105/248/34 107/249/34
f 107/249/34 109/250/34 111/136/34
f 111/136/34 113/251/34 115/252/34
f 115/252/34 117/253/34 119/254/34
f 119/254/34 121/255/34 123/256/34
f 123/256/34 125/257/34 127/137/34
f 127/137/34 67/230/34 71/232/34
f 71/232/34 75/234/34 79/236/34
f 79/236/34 83/238/34 87/240/34
f 87/240/34 91/242/34 95/135/34
f 95/135/34 99/245/34 103/247/34
f 103/247/34 107/249/34 111/136/34
f 111/136/34 115/252/34 119/254/34
f 119/254/34 123/256/34 127/137/34
f 127/137/34 71/232/34 79/236/34
f 79/236/34 87/240/34 95/135/34
f 95/135/34 103/247/34 111/136/34
f 111/136/34 119/254/34 127/137/34
f 127/137/34 79/236/34 95/135/34
