# Blender 5.1.0
# www.blender.org
mtllib baseboll.mtl
o 球
v 0.000000 1.000000 0.000000
v 0.000000 0.831470 -0.555570
v 0.000000 0.555570 -0.831470
v 0.000000 0.195090 -0.980785
v 0.000000 0.000000 -1.000000
v 0.000000 -0.195090 -0.980785
v 0.000000 -0.555570 -0.831470
v 0.000000 -1.000000 0.000000
v 0.038060 0.980785 -0.191342
v 0.074658 0.923880 -0.375330
v 0.108386 0.831470 -0.544895
v 0.137950 0.707107 -0.693520
v 0.162212 0.555570 -0.815493
v 0.180240 0.382683 -0.906127
v 0.191342 0.195090 -0.961940
v 0.195090 0.000000 -0.980785
v 0.191342 -0.195090 -0.961940
v 0.180240 -0.382683 -0.906127
v 0.162212 -0.555570 -0.815493
v 0.137950 -0.707107 -0.693520
v 0.108386 -0.831470 -0.544895
v 0.074658 -0.923880 -0.375330
v 0.038060 -0.980785 -0.191342
v 0.074658 0.980785 -0.180240
v 0.146447 0.923880 -0.353553
v 0.212608 0.831470 -0.513280
v 0.270598 0.707107 -0.653281
v 0.318190 0.555570 -0.768178
v 0.353553 0.382683 -0.853553
v 0.375330 0.195090 -0.906127
v 0.382683 0.000000 -0.923879
v 0.375330 -0.195090 -0.906127
v 0.353553 -0.382683 -0.853553
v 0.318190 -0.555570 -0.768178
v 0.270598 -0.707107 -0.653281
v 0.212608 -0.831470 -0.513280
v 0.146447 -0.923880 -0.353553
v 0.074658 -0.980785 -0.180240
v 0.108386 0.980785 -0.162212
v 0.212608 0.923880 -0.318190
v 0.308658 0.831470 -0.461940
v 0.392847 0.707107 -0.587938
v 0.461940 0.555570 -0.691342
v 0.513280 0.382683 -0.768178
v 0.544895 0.195090 -0.815493
v 0.555570 0.000000 -0.831469
v 0.544895 -0.195090 -0.815493
v 0.513280 -0.382683 -0.768178
v 0.461940 -0.555570 -0.691342
v 0.392847 -0.707107 -0.587938
v 0.308658 -0.831470 -0.461940
v 0.212608 -0.923880 -0.318190
v 0.108386 -0.980785 -0.162212
v 0.137950 0.980785 -0.137950
v 0.270598 0.923880 -0.270598
v 0.392847 0.831470 -0.392847
v 0.500000 0.707107 -0.500000
v 0.587938 0.555570 -0.587938
v 0.653281 0.382683 -0.653281
v 0.693520 0.195090 -0.693520
v 0.707107 0.000000 -0.707107
v 0.693520 -0.195090 -0.693520
v 0.653281 -0.382683 -0.653281
v 0.587938 -0.555570 -0.587938
v 0.500000 -0.707107 -0.500000
v 0.392847 -0.831470 -0.392847
v 0.270598 -0.923880 -0.270598
v 0.137950 -0.980785 -0.137950
v 0.162212 0.980785 -0.108386
v 0.318190 0.923880 -0.212608
v 0.461940 0.831470 -0.308658
v 0.587938 0.707107 -0.392847
v 0.691342 0.555570 -0.461940
v 0.768178 0.382683 -0.513280
v 0.815493 0.195090 -0.544895
v 0.831470 0.000000 -0.555570
v 0.815493 -0.195090 -0.544895
v 0.768178 -0.382683 -0.513280
v 0.691342 -0.555570 -0.461940
v 0.587938 -0.707107 -0.392847
v 0.461940 -0.831470 -0.308658
v 0.318190 -0.923880 -0.212608
v 0.162212 -0.980785 -0.108386
v 0.180240 0.980785 -0.074658
v 0.353553 0.923880 -0.146447
v 0.513280 0.831470 -0.212607
v 0.653281 0.707107 -0.270598
v 0.768178 0.555570 -0.318190
v 0.853553 0.382683 -0.353553
v 0.906127 0.195090 -0.375330
v 0.923879 0.000000 -0.382683
v 0.906127 -0.195090 -0.375330
v 0.853553 -0.382683 -0.353553
v 0.768178 -0.555570 -0.318190
v 0.653281 -0.707107 -0.270598
v 0.513280 -0.831470 -0.212607
v 0.353553 -0.923880 -0.146447
v 0.180240 -0.980785 -0.074658
v 0.191342 0.980785 -0.038060
v 0.375330 0.923880 -0.074658
v 0.544895 0.831470 -0.108386
v 0.693520 0.707107 -0.137950
v 0.815493 0.555570 -0.162212
v 0.906127 0.382683 -0.180240
v 0.961940 0.195090 -0.191342
v 0.980785 0.000000 -0.195090
v 0.961940 -0.195090 -0.191342
v 0.906127 -0.382683 -0.180240
v 0.815493 -0.555570 -0.162212
v 0.693520 -0.707107 -0.137950
v 0.544895 -0.831470 -0.108386
v 0.375330 -0.923880 -0.074658
v 0.191342 -0.980785 -0.038060
v 0.195090 0.980785 0.000000
v 0.382683 0.923880 0.000000
v 0.555570 0.831470 0.000000
v 0.707107 0.707107 -0.000000
v 0.831469 0.555570 0.000000
v 0.923879 0.382683 -0.000000
v 0.980785 0.195090 0.000000
v 1.000000 0.000000 0.000000
v 0.980785 -0.195090 0.000000
v 0.923879 -0.382683 -0.000000
v 0.831469 -0.555570 0.000000
v 0.707107 -0.707107 -0.000000
v 0.555570 -0.831470 0.000000
v 0.382683 -0.923880 0.000000
v 0.195090 -0.980785 0.000000
v 0.191342 0.980785 0.038060
v 0.375330 0.923880 0.074658
v 0.544895 0.831470 0.108386
v 0.693520 0.707107 0.137950
v 0.815493 0.555570 0.162212
v 0.906127 0.382683 0.180240
v 0.961940 0.195090 0.191342
v 0.980785 0.000000 0.195090
v 0.961940 -0.195090 0.191342
v 0.906127 -0.382683 0.180240
v 0.815493 -0.555570 0.162212
v 0.693520 -0.707107 0.137950
v 0.544895 -0.831470 0.108386
v 0.375330 -0.923880 0.074658
v 0.191342 -0.980785 0.038060
v 0.180240 0.980785 0.074658
v 0.353553 0.923880 0.146447
v 0.513280 0.831470 0.212608
v 0.653281 0.707107 0.270598
v 0.768178 0.555570 0.318190
v 0.853553 0.382683 0.353553
v 0.906127 0.195090 0.375330
v 0.923879 0.000000 0.382683
v 0.906127 -0.195090 0.375330
v 0.853553 -0.382683 0.353553
v 0.768178 -0.555570 0.318190
v 0.653281 -0.707107 0.270598
v 0.513280 -0.831470 0.212608
v 0.353553 -0.923880 0.146447
v 0.180240 -0.980785 0.074658
v 0.162212 0.980785 0.108386
v 0.318190 0.923880 0.212608
v 0.461940 0.831470 0.308658
v 0.587938 0.707107 0.392847
v 0.691341 0.555570 0.461940
v 0.768178 0.382683 0.513280
v 0.815493 0.195090 0.544895
v 0.831469 0.000000 0.555570
v 0.815493 -0.195090 0.544895
v 0.768178 -0.382683 0.513280
v 0.691341 -0.555570 0.461940
v 0.587938 -0.707107 0.392847
v 0.461940 -0.831470 0.308658
v 0.318190 -0.923880 0.212608
v 0.162212 -0.980785 0.108386
v 0.137950 0.980785 0.137950
v 0.270598 0.923880 0.270598
v 0.392847 0.831470 0.392847
v 0.500000 0.707107 0.500000
v 0.587938 0.555570 0.587938
v 0.653281 0.382683 0.653281
v 0.693520 0.195090 0.693520
v 0.707106 0.000000 0.707107
v 0.693520 -0.195090 0.693520
v 0.653281 -0.382683 0.653281
v 0.587938 -0.555570 0.587938
v 0.500000 -0.707107 0.500000
v 0.392847 -0.831470 0.392847
v 0.270598 -0.923880 0.270598
v 0.137950 -0.980785 0.137950
v 0.108386 0.980785 0.162212
v 0.212607 0.923880 0.318190
v 0.308658 0.831470 0.461940
v 0.392847 0.707107 0.587938
v 0.461940 0.555570 0.691342
v 0.513280 0.382683 0.768178
v 0.544895 0.195090 0.815493
v 0.555570 0.000000 0.831469
v 0.544895 -0.195090 0.815493
v 0.513280 -0.382683 0.768178
v 0.461940 -0.555570 0.691342
v 0.392847 -0.707107 0.587938
v 0.308658 -0.831470 0.461940
v 0.212607 -0.923880 0.318190
v 0.108386 -0.980785 0.162212
v 0.074658 0.980785 0.180240
v 0.146447 0.923880 0.353553
v 0.212607 0.831470 0.513280
v 0.270598 0.707107 0.653281
v 0.318189 0.555570 0.768178
v 0.353553 0.382683 0.853553
v 0.375330 0.195090 0.906127
v 0.382683 0.000000 0.923879
v 0.375330 -0.195090 0.906127
v 0.353553 -0.382683 0.853553
v 0.318189 -0.555570 0.768178
v 0.270598 -0.707107 0.653281
v 0.212607 -0.831470 0.513280
v 0.146447 -0.923880 0.353553
v 0.074658 -0.980785 0.180240
v 0.038060 0.980785 0.191342
v 0.074658 0.923880 0.375330
v 0.108386 0.831470 0.544895
v 0.137950 0.707107 0.693520
v 0.162212 0.555570 0.815493
v 0.180240 0.382683 0.906127
v 0.191342 0.195090 0.961939
v 0.195090 0.000000 0.980785
v 0.191342 -0.195090 0.961939
v 0.180240 -0.382683 0.906127
v 0.162212 -0.555570 0.815493
v 0.137950 -0.707107 0.693520
v 0.108386 -0.831470 0.544895
v 0.074658 -0.923880 0.375330
v 0.038060 -0.980785 0.191342
v -0.000000 0.980785 0.195090
v -0.000000 0.923880 0.382683
v -0.000000 0.831470 0.555570
v -0.000000 0.707107 0.707107
v -0.000000 0.555570 0.831469
v 0.000000 0.382683 0.923879
v -0.000000 0.195090 0.980785
v -0.000000 0.000000 0.999999
v -0.000000 -0.195090 0.980785
v 0.000000 -0.382683 0.923879
v -0.000000 -0.555570 0.831469
v -0.000000 -0.707107 0.707107
v -0.000000 -0.831470 0.555570
v -0.000000 -0.923880 0.382683
v -0.000000 -0.980785 0.195090
v -0.038060 0.980785 0.191342
v -0.074658 0.923880 0.375330
v -0.108386 0.831470 0.544895
v -0.137950 0.707107 0.693520
v -0.162212 0.555570 0.815493
v -0.180240 0.382683 0.906127
v -0.191342 0.195090 0.961939
v -0.195091 0.000000 0.980785
v -0.191342 -0.195090 0.961939
v -0.180240 -0.382683 0.906127
v -0.162212 -0.555570 0.815493
v -0.137950 -0.707107 0.693520
v -0.108386 -0.831470 0.544895
v -0.074658 -0.923880 0.375330
v -0.038060 -0.980785 0.191342
v -0.074658 0.980785 0.180240
v -0.146447 0.923880 0.353553
v -0.212608 0.831470 0.513280
v -0.270598 0.707107 0.653281
v -0.318190 0.555570 0.768177
v -0.353553 0.382683 0.853553
v -0.375330 0.195090 0.906127
v -0.382683 0.000000 0.923879
v -0.375330 -0.195090 0.906127
v -0.353553 -0.382683 0.853553
v -0.318190 -0.555570 0.768177
v -0.270598 -0.707107 0.653281
v -0.212608 -0.831470 0.513280
v -0.146447 -0.923880 0.353553
v -0.074658 -0.980785 0.180240
v -0.108386 0.980785 0.162212
v -0.212608 0.923880 0.318190
v -0.308658 0.831470 0.461939
v -0.392847 0.707107 0.587938
v -0.461940 0.555570 0.691341
v -0.513280 0.382683 0.768178
v -0.544895 0.195090 0.815493
v -0.555570 0.000000 0.831469
v -0.544895 -0.195090 0.815493
v -0.513280 -0.382683 0.768178
v -0.461940 -0.555570 0.691341
v -0.392847 -0.707107 0.587938
v -0.308658 -0.831470 0.461939
v -0.212608 -0.923880 0.318190
v -0.108386 -0.980785 0.162212
v -0.137950 0.980785 0.137950
v -0.270598 0.923880 0.270598
v -0.392847 0.831470 0.392847
v -0.500000 0.707107 0.500000
v -0.587938 0.555570 0.587937
v -0.653281 0.382683 0.653281
v -0.693520 0.195090 0.693520
v -0.707106 0.000000 0.707106
v -0.693520 -0.195090 0.693520
v -0.653281 -0.382683 0.653281
v -0.587938 -0.555570 0.587937
v -0.500000 -0.707107 0.500000
v -0.392847 -0.831470 0.392847
v -0.270598 -0.923880 0.270598
v -0.137950 -0.980785 0.137950
v -0.162212 0.980785 0.108386
v -0.318190 0.923880 0.212607
v -0.461940 0.831470 0.308658
v -0.587938 0.707107 0.392847
v -0.691341 0.555570 0.461939
v -0.768177 0.382683 0.513280
v -0.815493 0.195090 0.544895
v -0.831469 0.000000 0.555569
v -0.815493 -0.195090 0.544895
v -0.768177 -0.382683 0.513280
v -0.691341 -0.555570 0.461939
v -0.587938 -0.707107 0.392847
v -0.461940 -0.831470 0.308658
v -0.318190 -0.923880 0.212607
v -0.162212 -0.980785 0.108386
v -0.180240 0.980785 0.074658
v -0.353553 0.923880 0.146447
v -0.513280 0.831470 0.212607
v -0.653281 0.707107 0.270598
v -0.768177 0.555570 0.318189
v -0.853553 0.382683 0.353553
v -0.906127 0.195090 0.375330
v -0.923879 0.000000 0.382683
v -0.906127 -0.195090 0.375330
v -0.853553 -0.382683 0.353553
v -0.768177 -0.555570 0.318189
v -0.653281 -0.707107 0.270598
v -0.513280 -0.831470 0.212607
v -0.353553 -0.923880 0.146447
v -0.180240 -0.980785 0.074658
v -0.191342 0.980785 0.038060
v -0.375330 0.923880 0.074658
v -0.544895 0.831470 0.108386
v -0.693520 0.707107 0.137950
v -0.815493 0.555570 0.162211
v -0.906127 0.382683 0.180240
v -0.961939 0.195090 0.191341
v -0.980784 0.000000 0.195090
v -0.961939 -0.195090 0.191341
v -0.906127 -0.382683 0.180240
v -0.815493 -0.555570 0.162211
v -0.693520 -0.707107 0.137950
v -0.544895 -0.831470 0.108386
v -0.375330 -0.923880 0.074658
v -0.191342 -0.980785 0.038060
v -0.195090 0.980785 -0.000000
v -0.382683 0.923880 -0.000000
v -0.555570 0.831470 -0.000000
v -0.707107 0.707107 -0.000000
v -0.831469 0.555570 -0.000000
v -0.923879 0.382683 -0.000000
v -0.980785 0.195090 -0.000000
v -0.999999 0.000000 -0.000000
v -0.980785 -0.195090 -0.000000
v -0.923879 -0.382683 -0.000000
v -0.831469 -0.555570 -0.000000
v -0.707107 -0.707107 -0.000000
v -0.555570 -0.831470 -0.000000
v -0.382683 -0.923880 -0.000000
v -0.195090 -0.980785 -0.000000
v -0.191342 0.980785 -0.038060
v -0.375330 0.923880 -0.074658
v -0.544895 0.831470 -0.108386
v -0.693520 0.707107 -0.137950
v -0.815493 0.555570 -0.162212
v -0.906127 0.382683 -0.180240
v -0.961939 0.195090 -0.191342
v -0.980784 0.000000 -0.195091
v -0.961939 -0.195090 -0.191342
v -0.906127 -0.382683 -0.180240
v -0.815493 -0.555570 -0.162212
v -0.693520 -0.707107 -0.137950
v -0.544895 -0.831470 -0.108386
v -0.375330 -0.923880 -0.074658
v -0.191342 -0.980785 -0.038060
v -0.180240 0.980785 -0.074658
v -0.353553 0.923880 -0.146447
v -0.513279 0.831470 -0.212607
v -0.653281 0.707107 -0.270598
v -0.768177 0.555570 -0.318190
v -0.853553 0.382683 -0.353553
v -0.906127 0.195090 -0.375330
v -0.923878 0.000000 -0.382683
v -0.906127 -0.195090 -0.375330
v -0.853553 -0.382683 -0.353553
v -0.768177 -0.555570 -0.318190
v -0.653281 -0.707107 -0.270598
v -0.513279 -0.831470 -0.212607
v -0.353553 -0.923880 -0.146447
v -0.180240 -0.980785 -0.074658
v -0.162212 0.980785 -0.108386
v -0.318189 0.923880 -0.212607
v -0.461939 0.831470 -0.308658
v -0.587938 0.707107 -0.392847
v -0.691341 0.555570 -0.461940
v -0.768177 0.382683 -0.513280
v -0.815493 0.195090 -0.544895
v -0.831468 0.000000 -0.555570
v -0.815493 -0.195090 -0.544895
v -0.768177 -0.382683 -0.513280
v -0.691341 -0.555570 -0.461940
v -0.587938 -0.707107 -0.392847
v -0.461939 -0.831470 -0.308658
v -0.318189 -0.923880 -0.212607
v -0.162212 -0.980785 -0.108386
v -0.137950 0.980785 -0.137950
v -0.270598 0.923880 -0.270598
v -0.392847 0.831470 -0.392847
v -0.500000 0.707107 -0.500000
v -0.587937 0.555570 -0.587938
v -0.653281 0.382683 -0.653281
v -0.693519 0.195090 -0.693520
v -0.707106 0.000000 -0.707106
v -0.693519 -0.195090 -0.693520
v -0.653281 -0.382683 -0.653281
v -0.587937 -0.555570 -0.587938
v -0.500000 -0.707107 -0.500000
v -0.392847 -0.831470 -0.392847
v -0.270598 -0.923880 -0.270598
v -0.137950 -0.980785 -0.137950
v -0.108386 0.980785 -0.162212
v -0.212607 0.923880 -0.318190
v -0.308658 0.831470 -0.461939
v -0.392847 0.707107 -0.587938
v -0.461939 0.555570 -0.691341
v -0.513280 0.382683 -0.768177
v -0.544895 0.195090 -0.815493
v -0.555569 0.000000 -0.831469
v -0.544895 -0.195090 -0.815493
v -0.513280 -0.382683 -0.768177
v -0.461939 -0.555570 -0.691341
v -0.392847 -0.707107 -0.587938
v -0.308658 -0.831470 -0.461939
v -0.212607 -0.923880 -0.318190
v -0.108386 -0.980785 -0.162212
v -0.074658 0.980785 -0.180240
v -0.146446 0.923880 -0.353553
v -0.212607 0.831470 -0.513279
v -0.270598 0.707107 -0.653281
v -0.318189 0.555570 -0.768177
v -0.353553 0.382683 -0.853553
v -0.375330 0.195090 -0.906127
v -0.382683 0.000000 -0.923879
v -0.375330 -0.195090 -0.906127
v -0.353553 -0.382683 -0.853553
v -0.318189 -0.555570 -0.768177
v -0.270598 -0.707107 -0.653281
v -0.212607 -0.831470 -0.513279
v -0.146446 -0.923880 -0.353553
v -0.074658 -0.980785 -0.180240
v -0.038060 0.980785 -0.191342
v -0.074658 0.923880 -0.375330
v -0.108386 0.831470 -0.544895
v -0.137950 0.707107 -0.693520
v -0.162211 0.555570 -0.815493
v -0.180240 0.382683 -0.906127
v -0.191341 0.195090 -0.961939
v -0.195090 0.000000 -0.980784
v -0.191341 -0.195090 -0.961939
v -0.180240 -0.382683 -0.906127
v -0.162211 -0.555570 -0.815493
v -0.137950 -0.707107 -0.693520
v -0.108386 -0.831470 -0.544895
v -0.074658 -0.923880 -0.375330
v -0.038060 -0.980785 -0.191342
v 0.000000 0.980785 -0.195090
v 0.000000 0.923880 -0.382683
v 0.000000 0.707107 -0.707107
v 0.000000 0.382683 -0.923879
v 0.000000 -0.382683 -0.923879
v 0.000000 -0.707107 -0.707107
v 0.000000 -0.831470 -0.555570
v 0.000000 -0.923880 -0.382683
v 0.000000 -0.980785 -0.195090
vn 0.0975 -0.0975 -0.9904
vn 0.0286 0.9565 -0.2902
vn 0.0938 -0.2890 -0.9527
vn 0.0464 0.8810 -0.4709
vn 0.0865 -0.4696 -0.8786
vn 0.0624 0.7715 -0.6332
vn 0.0759 -0.6326 -0.7708
vn 0.0759 0.6326 -0.7708
vn 0.0624 -0.7715 -0.6332
vn 0.0865 0.4696 -0.8786
vn 0.0464 -0.8810 -0.4709
vn 0.0938 0.2890 -0.9527
vn 0.0286 -0.9565 -0.2902
vn 0.0975 0.0975 -0.9904
vn 0.0097 0.9951 -0.0980
vn 0.0097 -0.9951 -0.0980
vn 0.0846 -0.9565 -0.2790
vn 0.2889 0.0976 -0.9524
vn 0.0286 0.9951 -0.0942
vn 0.0286 -0.9951 -0.0942
vn 0.2889 -0.0976 -0.9524
vn 0.0846 0.9565 -0.2790
vn 0.2779 -0.2890 -0.9161
vn 0.1374 0.8810 -0.4528
vn 0.2563 -0.4696 -0.8448
vn 0.1847 0.7715 -0.6088
vn 0.2248 -0.6326 -0.7412
vn 0.2248 0.6326 -0.7412
vn 0.1847 -0.7715 -0.6088
vn 0.2563 0.4696 -0.8448
vn 0.1374 -0.8810 -0.4528
vn 0.2779 0.2890 -0.9161
vn 0.3651 -0.6326 -0.6831
vn 0.3651 0.6326 -0.6831
vn 0.2999 -0.7715 -0.5611
vn 0.4162 0.4696 -0.7786
vn 0.2230 -0.8810 -0.4173
vn 0.4513 0.2890 -0.8443
vn 0.1374 -0.9565 -0.2571
vn 0.4691 0.0975 -0.8777
vn 0.0464 0.9951 -0.0869
vn 0.0464 -0.9951 -0.0869
vn 0.4691 -0.0975 -0.8777
vn 0.1374 0.9565 -0.2571
vn 0.4513 -0.2890 -0.8443
vn 0.2230 0.8810 -0.4173
vn 0.4162 -0.4696 -0.7786
vn 0.2999 0.7715 -0.5611
vn 0.0625 0.9951 -0.0761
vn 0.0625 -0.9951 -0.0761
vn 0.6314 -0.0975 -0.7693
vn 0.1850 0.9565 -0.2254
vn 0.6073 -0.2890 -0.7400
vn 0.3002 0.8810 -0.3658
vn 0.5601 -0.4696 -0.6825
vn 0.4036 0.7715 -0.4918
vn 0.4913 -0.6326 -0.5987
vn 0.4913 0.6326 -0.5987
vn 0.4036 -0.7715 -0.4918
vn 0.5601 0.4696 -0.6825
vn 0.3002 -0.8810 -0.3658
vn 0.6073 0.2890 -0.7400
vn 0.1850 -0.9565 -0.2254
vn 0.6314 0.0975 -0.7693
vn 0.5987 0.6326 -0.4913
vn 0.4918 -0.7715 -0.4036
vn 0.6825 0.4696 -0.5601
vn 0.3658 -0.8810 -0.3002
vn 0.7400 0.2890 -0.6073
vn 0.2254 -0.9565 -0.1850
vn 0.7693 0.0975 -0.6314
vn 0.0761 0.9951 -0.0625
vn 0.0761 -0.9951 -0.0625
vn 0.7693 -0.0975 -0.6314
vn 0.2254 0.9565 -0.1850
vn 0.7400 -0.2890 -0.6073
vn 0.3658 0.8810 -0.3002
vn 0.6825 -0.4696 -0.5601
vn 0.4918 0.7715 -0.4036
vn 0.5987 -0.6326 -0.4913
vn 0.8777 -0.0975 -0.4691
vn 0.2571 0.9565 -0.1374
vn 0.8443 -0.2890 -0.4513
vn 0.4173 0.8810 -0.2230
vn 0.7786 -0.4696 -0.4162
vn 0.5611 0.7715 -0.2999
vn 0.6831 -0.6326 -0.3651
vn 0.6831 0.6326 -0.3651
vn 0.5611 -0.7715 -0.2999
vn 0.7786 0.4696 -0.4162
vn 0.4173 -0.8810 -0.2230
vn 0.8443 0.2890 -0.4513
vn 0.2571 -0.9565 -0.1374
vn 0.8777 0.0975 -0.4691
vn 0.0869 0.9951 -0.0464
vn 0.0869 -0.9951 -0.0464
vn 0.6088 -0.7715 -0.1847
vn 0.8448 0.4696 -0.2563
vn 0.4528 -0.8810 -0.1374
vn 0.9161 0.2890 -0.2779
vn 0.2790 -0.9565 -0.0846
vn 0.9524 0.0975 -0.2889
vn 0.0942 0.9951 -0.0286
vn 0.0942 -0.9951 -0.0286
vn 0.9524 -0.0975 -0.2889
vn 0.2790 0.9565 -0.0846
vn 0.9161 -0.2890 -0.2779
vn 0.4528 0.8810 -0.1374
vn 0.8448 -0.4696 -0.2563
vn 0.6088 0.7715 -0.1847
vn 0.7412 -0.6326 -0.2248
vn 0.7412 0.6326 -0.2248
vn 0.2902 0.9565 -0.0286
vn 0.9527 -0.2890 -0.0938
vn 0.4709 0.8810 -0.0464
vn 0.8786 -0.4696 -0.0865
vn 0.6332 0.7715 -0.0624
vn 0.7708 -0.6326 -0.0759
vn 0.7708 0.6326 -0.0759
vn 0.6332 -0.7715 -0.0624
vn 0.8786 0.4696 -0.0865
vn 0.4709 -0.8810 -0.0464
vn 0.9527 0.2890 -0.0938
vn 0.2902 -0.9565 -0.0286
vn 0.9904 0.0975 -0.0975
vn 0.0980 0.9951 -0.0097
vn 0.0980 -0.9951 -0.0097
vn 0.9904 -0.0975 -0.0975
vn 0.8786 0.4696 0.0865
vn 0.4709 -0.8810 0.0464
vn 0.9527 0.2890 0.0938
vn 0.2902 -0.9565 0.0286
vn 0.9904 0.0975 0.0976
vn 0.0980 0.9951 0.0097
vn 0.0980 -0.9951 0.0097
vn 0.9904 -0.0975 0.0976
vn 0.2902 0.9565 0.0286
vn 0.9527 -0.2890 0.0938
vn 0.4709 0.8810 0.0464
vn 0.8786 -0.4696 0.0865
vn 0.6332 0.7715 0.0624
vn 0.7708 -0.6326 0.0759
vn 0.7708 0.6326 0.0759
vn 0.6332 -0.7715 0.0624
vn 0.9161 -0.2890 0.2779
vn 0.4528 0.8810 0.1374
vn 0.8448 -0.4696 0.2563
vn 0.6088 0.7715 0.1847
vn 0.7412 -0.6326 0.2248
vn 0.7412 0.6326 0.2248
vn 0.6088 -0.7715 0.1847
vn 0.8448 0.4696 0.2563
vn 0.4528 -0.8810 0.1374
vn 0.9161 0.2890 0.2779
vn 0.2790 -0.9565 0.0846
vn 0.9524 0.0975 0.2889
vn 0.0942 0.9951 0.0286
vn 0.0942 -0.9951 0.0286
vn 0.9524 -0.0975 0.2889
vn 0.2790 0.9565 0.0846
vn 0.4173 -0.8810 0.2230
vn 0.8443 0.2890 0.4513
vn 0.2571 -0.9565 0.1374
vn 0.8777 0.0975 0.4691
vn 0.0869 0.9951 0.0464
vn 0.0869 -0.9951 0.0464
vn 0.8777 -0.0975 0.4691
vn 0.2571 0.9565 0.1374
vn 0.8443 -0.2890 0.4513
vn 0.4173 0.8810 0.2230
vn 0.7786 -0.4696 0.4162
vn 0.5611 0.7715 0.2999
vn 0.6831 -0.6326 0.3651
vn 0.6831 0.6326 0.3651
vn 0.5611 -0.7715 0.2999
vn 0.7786 0.4696 0.4162
vn 0.6825 -0.4696 0.5601
vn 0.4918 0.7715 0.4036
vn 0.5987 -0.6326 0.4913
vn 0.5987 0.6326 0.4913
vn 0.4918 -0.7715 0.4036
vn 0.6825 0.4696 0.5601
vn 0.3658 -0.8810 0.3002
vn 0.7400 0.2890 0.6073
vn 0.2254 -0.9565 0.1850
vn 0.7693 0.0975 0.6314
vn 0.0761 0.9951 0.0625
vn 0.0761 -0.9951 0.0625
vn 0.7693 -0.0975 0.6314
vn 0.2254 0.9565 0.1850
vn 0.7400 -0.2890 0.6073
vn 0.3658 0.8810 0.3002
vn 0.1850 -0.9565 0.2254
vn 0.6314 0.0975 0.7693
vn 0.0625 0.9951 0.0761
vn 0.0625 -0.9951 0.0761
vn 0.6314 -0.0975 0.7693
vn 0.1850 0.9565 0.2254
vn 0.6073 -0.2890 0.7400
vn 0.3002 0.8810 0.3658
vn 0.5601 -0.4696 0.6825
vn 0.4036 0.7715 0.4918
vn 0.4913 -0.6326 0.5987
vn 0.4913 0.6326 0.5987
vn 0.4036 -0.7715 0.4918
vn 0.5601 0.4696 0.6825
vn 0.3002 -0.8810 0.3658
vn 0.6073 0.2890 0.7400
vn 0.2999 0.7715 0.5611
vn 0.3651 -0.6326 0.6831
vn 0.3651 0.6326 0.6831
vn 0.2999 -0.7715 0.5611
vn 0.4162 0.4696 0.7786
vn 0.2230 -0.8810 0.4173
vn 0.4513 0.2890 0.8443
vn 0.1374 -0.9565 0.2571
vn 0.4691 0.0975 0.8777
vn 0.0464 0.9951 0.0869
vn 0.0464 -0.9951 0.0869
vn 0.4691 -0.0975 0.8777
vn 0.1374 0.9565 0.2571
vn 0.4513 -0.2890 0.8443
vn 0.2230 0.8810 0.4173
vn 0.4162 -0.4696 0.7786
vn 0.2889 0.0975 0.9524
vn 0.0286 0.9951 0.0942
vn 0.0286 -0.9951 0.0942
vn 0.2889 -0.0975 0.9524
vn 0.0846 0.9565 0.2790
vn 0.2779 -0.2890 0.9161
vn 0.1374 0.8810 0.4528
vn 0.2563 -0.4696 0.8448
vn 0.1847 0.7715 0.6088
vn 0.2248 -0.6326 0.7412
vn 0.2248 0.6326 0.7412
vn 0.1847 -0.7715 0.6088
vn 0.2563 0.4696 0.8448
vn 0.1374 -0.8810 0.4528
vn 0.2779 0.2890 0.9161
vn 0.0846 -0.9565 0.2790
vn 0.0759 -0.6326 0.7708
vn 0.0759 0.6326 0.7708
vn 0.0624 -0.7715 0.6332
vn 0.0865 0.4696 0.8786
vn 0.0464 -0.8810 0.4709
vn 0.0938 0.2890 0.9527
vn 0.0286 -0.9565 0.2902
vn 0.0975 0.0975 0.9904
vn 0.0097 0.9951 0.0980
vn 0.0097 -0.9951 0.0980
vn 0.0975 -0.0975 0.9904
vn 0.0286 0.9565 0.2902
vn 0.0938 -0.2890 0.9527
vn 0.0464 0.8810 0.4709
vn 0.0865 -0.4696 0.8786
vn 0.0624 0.7715 0.6332
vn -0.0097 0.9951 0.0980
vn -0.0097 -0.9951 0.0980
vn -0.0976 -0.0975 0.9904
vn -0.0286 0.9565 0.2902
vn -0.0938 -0.2890 0.9527
vn -0.0464 0.8810 0.4709
vn -0.0865 -0.4696 0.8786
vn -0.0624 0.7715 0.6332
vn -0.0759 -0.6326 0.7708
vn -0.0759 0.6326 0.7708
vn -0.0624 -0.7715 0.6332
vn -0.0865 0.4696 0.8786
vn -0.0464 -0.8810 0.4709
vn -0.0938 0.2890 0.9527
vn -0.0286 -0.9565 0.2902
vn -0.0976 0.0975 0.9904
vn -0.2248 0.6326 0.7412
vn -0.1847 -0.7715 0.6088
vn -0.2563 0.4696 0.8448
vn -0.1374 -0.8810 0.4528
vn -0.2779 0.2890 0.9161
vn -0.0846 -0.9565 0.2790
vn -0.2889 0.0975 0.9524
vn -0.0286 0.9951 0.0942
vn -0.0286 -0.9951 0.0942
vn -0.2889 -0.0975 0.9524
vn -0.0846 0.9565 0.2790
vn -0.2779 -0.2890 0.9161
vn -0.1374 0.8810 0.4528
vn -0.2563 -0.4696 0.8448
vn -0.1847 0.7715 0.6088
vn -0.2248 -0.6326 0.7412
vn -0.4691 -0.0975 0.8777
vn -0.1374 0.9565 0.2571
vn -0.4513 -0.2890 0.8443
vn -0.2230 0.8810 0.4173
vn -0.4162 -0.4696 0.7786
vn -0.2999 0.7715 0.5611
vn -0.3651 -0.6326 0.6831
vn -0.3651 0.6326 0.6831
vn -0.2999 -0.7715 0.5611
vn -0.4162 0.4696 0.7786
vn -0.2230 -0.8810 0.4173
vn -0.4513 0.2890 0.8443
vn -0.1374 -0.9565 0.2571
vn -0.4691 0.0975 0.8777
vn -0.0464 0.9951 0.0869
vn -0.0464 -0.9951 0.0869
vn -0.4036 -0.7715 0.4918
vn -0.5601 0.4696 0.6825
vn -0.3002 -0.8810 0.3658
vn -0.6073 0.2890 0.7400
vn -0.1850 -0.9565 0.2254
vn -0.6314 0.0975 0.7693
vn -0.0625 0.9951 0.0761
vn -0.0625 -0.9951 0.0761
vn -0.6314 -0.0975 0.7693
vn -0.1850 0.9565 0.2254
vn -0.6073 -0.2890 0.7400
vn -0.3002 0.8810 0.3658
vn -0.5601 -0.4696 0.6825
vn -0.4036 0.7715 0.4918
vn -0.4913 -0.6326 0.5987
vn -0.4913 0.6326 0.5987
vn -0.7400 -0.2890 0.6073
vn -0.3658 0.8810 0.3002
vn -0.6825 -0.4696 0.5601
vn -0.4918 0.7715 0.4036
vn -0.5987 -0.6326 0.4913
vn -0.5987 0.6326 0.4913
vn -0.4918 -0.7715 0.4036
vn -0.6825 0.4696 0.5601
vn -0.3658 -0.8810 0.3002
vn -0.7400 0.2890 0.6073
vn -0.2254 -0.9565 0.1850
vn -0.7693 0.0975 0.6314
vn -0.0761 0.9951 0.0625
vn -0.0761 -0.9951 0.0625
vn -0.7693 -0.0975 0.6314
vn -0.2254 0.9565 0.1850
vn -0.4173 -0.8810 0.2230
vn -0.8443 0.2890 0.4513
vn -0.2571 -0.9565 0.1374
vn -0.8777 0.0975 0.4691
vn -0.0869 0.9951 0.0464
vn -0.0869 -0.9951 0.0464
vn -0.8777 -0.0975 0.4691
vn -0.2571 0.9565 0.1374
vn -0.8443 -0.2890 0.4513
vn -0.4173 0.8810 0.2230
vn -0.7786 -0.4696 0.4162
vn -0.5611 0.7715 0.2999
vn -0.6831 -0.6326 0.3651
vn -0.6831 0.6326 0.3651
vn -0.5611 -0.7715 0.2999
vn -0.7786 0.4696 0.4162
vn -0.4528 0.8810 0.1374
vn -0.8448 -0.4696 0.2563
vn -0.6088 0.7715 0.1847
vn -0.7412 -0.6326 0.2248
vn -0.7412 0.6326 0.2248
vn -0.6088 -0.7715 0.1847
vn -0.8448 0.4696 0.2563
vn -0.4528 -0.8810 0.1374
vn -0.9161 0.2890 0.2779
vn -0.2790 -0.9565 0.0846
vn -0.9524 0.0975 0.2889
vn -0.0942 0.9951 0.0286
vn -0.0942 -0.9951 0.0286
vn -0.9524 -0.0975 0.2889
vn -0.2790 0.9565 0.0846
vn -0.9161 -0.2890 0.2779
vn -0.9527 0.2890 0.0938
vn -0.2902 -0.9565 0.0286
vn -0.9904 0.0975 0.0975
vn -0.0980 0.9951 0.0097
vn -0.0980 -0.9951 0.0097
vn -0.9904 -0.0975 0.0975
vn -0.2902 0.9565 0.0286
vn -0.9527 -0.2890 0.0938
vn -0.4709 0.8810 0.0464
vn -0.8786 -0.4696 0.0865
vn -0.6332 0.7715 0.0624
vn -0.7708 -0.6326 0.0759
vn -0.7708 0.6326 0.0759
vn -0.6332 -0.7715 0.0624
vn -0.8786 0.4696 0.0865
vn -0.4709 -0.8810 0.0464
vn -0.8786 -0.4696 -0.0865
vn -0.6332 0.7715 -0.0624
vn -0.7708 -0.6326 -0.0759
vn -0.7708 0.6326 -0.0759
vn -0.6332 -0.7715 -0.0624
vn -0.8786 0.4696 -0.0865
vn -0.4709 -0.8810 -0.0464
vn -0.9527 0.2890 -0.0938
vn -0.2902 -0.9565 -0.0286
vn -0.9904 0.0975 -0.0976
vn -0.0980 0.9951 -0.0097
vn -0.0980 -0.9951 -0.0097
vn -0.9904 -0.0975 -0.0976
vn -0.2902 0.9565 -0.0286
vn -0.9527 -0.2890 -0.0938
vn -0.4709 0.8810 -0.0464
vn -0.2790 -0.9565 -0.0846
vn -0.9524 0.0975 -0.2889
vn -0.0942 0.9951 -0.0286
vn -0.0942 -0.9951 -0.0286
vn -0.9524 -0.0975 -0.2889
vn -0.2790 0.9565 -0.0846
vn -0.9161 -0.2890 -0.2779
vn -0.4528 0.8810 -0.1374
vn -0.8448 -0.4696 -0.2563
vn -0.6088 0.7715 -0.1847
vn -0.7412 -0.6326 -0.2248
vn -0.7412 0.6326 -0.2248
vn -0.6088 -0.7715 -0.1847
vn -0.8448 0.4696 -0.2563
vn -0.4528 -0.8810 -0.1374
vn -0.9161 0.2890 -0.2779
vn -0.5611 0.7715 -0.2999
vn -0.6831 -0.6326 -0.3651
vn -0.6831 0.6326 -0.3651
vn -0.5611 -0.7715 -0.2999
vn -0.7786 0.4696 -0.4162
vn -0.4173 -0.8810 -0.2231
vn -0.8443 0.2890 -0.4513
vn -0.2571 -0.9565 -0.1374
vn -0.8777 0.0975 -0.4691
vn -0.0869 0.9951 -0.0464
vn -0.0869 -0.9951 -0.0464
vn -0.8777 -0.0975 -0.4691
vn -0.2571 0.9565 -0.1374
vn -0.8443 -0.2890 -0.4513
vn -0.4173 0.8810 -0.2231
vn -0.7786 -0.4696 -0.4162
vn -0.7693 0.0975 -0.6314
vn -0.0761 0.9951 -0.0625
vn -0.0761 -0.9951 -0.0625
vn -0.7693 -0.0975 -0.6314
vn -0.2254 0.9565 -0.1850
vn -0.7400 -0.2890 -0.6073
vn -0.3658 0.8810 -0.3002
vn -0.6825 -0.4696 -0.5601
vn -0.4918 0.7715 -0.4036
vn -0.5987 -0.6326 -0.4913
vn -0.5987 0.6326 -0.4913
vn -0.4918 -0.7715 -0.4036
vn -0.6825 0.4696 -0.5601
vn -0.3658 -0.8810 -0.3002
vn -0.7400 0.2890 -0.6073
vn -0.2254 -0.9565 -0.1850
vn -0.4913 -0.6326 -0.5987
vn -0.4913 0.6326 -0.5987
vn -0.4036 -0.7715 -0.4918
vn -0.5601 0.4696 -0.6825
vn -0.3002 -0.8810 -0.3658
vn -0.6073 0.2890 -0.7400
vn -0.1850 -0.9565 -0.2254
vn -0.6314 0.0975 -0.7693
vn -0.0625 0.9951 -0.0761
vn -0.0625 -0.9951 -0.0761
vn -0.6314 -0.0975 -0.7693
vn -0.1850 0.9565 -0.2254
vn -0.6073 -0.2890 -0.7400
vn -0.3002 0.8810 -0.3658
vn -0.5601 -0.4696 -0.6825
vn -0.4036 0.7715 -0.4918
vn -0.0464 -0.9951 -0.0869
vn -0.4691 -0.0975 -0.8777
vn -0.1374 0.9565 -0.2571
vn -0.4513 -0.2890 -0.8443
vn -0.2230 0.8810 -0.4173
vn -0.4162 -0.4696 -0.7786
vn -0.2999 0.7715 -0.5611
vn -0.3651 -0.6326 -0.6831
vn -0.3651 0.6326 -0.6831
vn -0.2999 -0.7715 -0.5611
vn -0.4162 0.4696 -0.7786
vn -0.2230 -0.8810 -0.4173
vn -0.4513 0.2890 -0.8443
vn -0.1374 -0.9565 -0.2571
vn -0.4691 0.0975 -0.8777
vn -0.0464 0.9951 -0.0869
vn -0.1847 -0.7715 -0.6088
vn -0.2563 0.4696 -0.8448
vn -0.1374 -0.8810 -0.4528
vn -0.2779 0.2890 -0.9161
vn -0.0846 -0.9565 -0.2790
vn -0.2889 0.0975 -0.9524
vn -0.0286 0.9951 -0.0942
vn -0.0286 -0.9951 -0.0942
vn -0.2889 -0.0975 -0.9524
vn -0.0846 0.9565 -0.2790
vn -0.2779 -0.2890 -0.9161
vn -0.1374 0.8810 -0.4528
vn -0.2563 -0.4696 -0.8448
vn -0.1847 0.7715 -0.6088
vn -0.2248 -0.6326 -0.7412
vn -0.2248 0.6326 -0.7412
vn -0.0286 0.9565 -0.2902
vn -0.0938 -0.2890 -0.9527
vn -0.0464 0.8810 -0.4709
vn -0.0865 -0.4696 -0.8786
vn -0.0624 0.7715 -0.6332
vn -0.0759 -0.6326 -0.7708
vn -0.0759 0.6326 -0.7708
vn -0.0624 -0.7715 -0.6332
vn -0.0865 0.4696 -0.8786
vn -0.0464 -0.8810 -0.4709
vn -0.0938 0.2890 -0.9527
vn -0.0286 -0.9565 -0.2902
vn -0.0976 0.0975 -0.9904
vn -0.0097 0.9951 -0.0980
vn -0.0097 -0.9951 -0.0980
vn -0.0976 -0.0975 -0.9904
vt 0.462804 0.242224
vt 0.460657 0.198623
vt 0.504313 0.198623
vt 0.505620 0.242224
vt 0.440795 0.451877
vt 0.478353 0.467571
vt 0.475030 0.475275
vt 0.434278 0.466991
vt 0.467382 0.283252
vt 0.507715 0.283252
vt 0.406182 0.439936
vt 0.396721 0.461878
vt 0.474217 0.320130
vt 0.510516 0.320130
vt 0.476602 0.032120
vt 0.485952 0.000499
vt 0.510206 0.000499
vt 0.507472 0.032120
vt 0.483046 0.351440
vt 0.513915 0.351440
vt 0.469154 0.069241
vt 0.505453 0.069241
vt 0.096522 0.405626
vt 0.097596 0.371099
vt 0.127665 0.368001
vt 0.120146 0.403192
vt 0.463895 0.110437
vt 0.504228 0.110437
vt 0.098401 0.444698
vt 0.114674 0.443021
vt 0.461026 0.154124
vt 0.503843 0.154124
vt 0.103162 0.486812
vt 0.111458 0.485957
vt 0.517411 0.486412
vt 0.110621 0.530351
vt 0.130975 0.444681
vt 0.119768 0.486804
vt 0.547481 0.153243
vt 0.548806 0.197725
vt 0.473336 0.483455
vt 0.549258 0.241343
vt 0.430956 0.483036
vt 0.548821 0.282422
vt 0.391898 0.485172
vt 0.547510 0.319383
vt 0.534925 0.000000
vt 0.538933 0.031485
vt 0.545376 0.350805
vt 0.542447 0.068495
vt 0.157785 0.371069
vt 0.143811 0.405602
vt 0.545334 0.109607
vt 0.583779 0.317919
vt 0.576220 0.349560
vt 0.569777 0.030239
vt 0.578716 0.067030
vt 0.186799 0.380185
vt 0.166608 0.412765
vt 0.585633 0.107980
vt 0.146677 0.449615
vt 0.590263 0.151516
vt 0.127773 0.489319
vt 0.592426 0.195964
vt 0.473336 0.491795
vt 0.592040 0.239616
vt 0.430956 0.499395
vt 0.589121 0.280795
vt 0.391898 0.508921
vt 0.357663 0.489780
vt 0.357663 0.520007
vt 0.475030 0.499974
vt 0.135165 0.493406
vt 0.633497 0.193407
vt 0.632322 0.237108
vt 0.434278 0.515440
vt 0.627065 0.278433
vt 0.396721 0.532215
vt 0.617928 0.315793
vt 0.363802 0.549654
vt 0.206475 0.353128
vt 0.237980 0.370547
vt 0.213592 0.394999
vt 0.598819 0.028431
vt 0.612866 0.064904
vt 0.187659 0.424404
vt 0.623578 0.105618
vt 0.161177 0.457632
vt 0.630545 0.149008
vt 0.624942 0.026130
vt 0.643583 0.062199
vt 0.237134 0.414942
vt 0.206156 0.440073
vt 0.657710 0.102612
vt 0.173918 0.468425
vt 0.666779 0.145816
vt 0.141660 0.498908
vt 0.670441 0.190153
vt 0.478353 0.507679
vt 0.668556 0.233917
vt 0.440795 0.530554
vt 0.661197 0.275427
vt 0.406183 0.554157
vt 0.648646 0.313087
vt 0.375844 0.577581
vt 0.265663 0.393998
vt 0.701838 0.186326
vt 0.699350 0.230164
vt 0.483176 0.514614
vt 0.450257 0.544156
vt 0.690204 0.271891
vt 0.419918 0.573904
vt 0.290645 0.378044
vt 0.315975 0.409801
vt 0.288459 0.422577
vt 0.393326 0.602714
vt 0.256521 0.439247
vt 0.350946 0.599926
vt 0.371503 0.629480
vt 0.221388 0.459170
vt 0.669689 0.059017
vt 0.686717 0.099076
vt 0.184410 0.481579
vt 0.697572 0.142063
vt 0.147009 0.505614
vt 0.271008 0.466981
vt 0.232770 0.480960
vt 0.355287 0.653173
vt 0.397667 0.654613
vt 0.384359 0.681100
vt 0.192250 0.496588
vt 0.903072 0.002934
vt 0.944704 0.012505
vt 0.947944 0.041546
vt 0.906511 0.033764
vt 0.151006 0.513266
vt 0.859262 0.000000
vt 0.862768 0.031434
vt 0.489315 0.520511
vt 0.814958 0.003815
vt 0.818397 0.034645
vt 0.462299 0.555723
vt 0.771862 0.014232
vt 0.775102 0.043273
vt 0.437401 0.590697
vt 0.334903 0.446036
vt 0.305494 0.455189
vt 0.415577 0.624088
vt 0.496534 0.525144
vt 0.476459 0.564812
vt 0.821219 0.070909
vt 0.777761 0.077434
vt 0.457958 0.603892
vt 0.734547 0.056987
vt 0.736940 0.087731
vt 0.441742 0.640882
vt 0.316111 0.490578
vt 0.280037 0.497077
vt 0.428434 0.674361
vt 0.239865 0.504606
vt 0.985474 0.054480
vt 0.987867 0.085224
vt 0.950602 0.075707
vt 0.197137 0.512876
vt 0.909333 0.070029
vt 0.153497 0.521569
vt 0.865646 0.068409
vt 0.989645 0.119393
vt 0.952578 0.113674
vt 0.242399 0.529200
vt 0.198883 0.529816
vt 0.911431 0.110335
vt 0.154387 0.530205
vt 0.867784 0.109504
vt 0.504555 0.528336
vt 0.823317 0.111215
vt 0.492193 0.571072
vt 0.779736 0.115400
vt 0.480800 0.612980
vt 0.738718 0.121900
vt 0.470814 0.652450
vt 0.319904 0.527385
vt 0.283263 0.528379
vt 0.462619 0.687963
vt 0.824608 0.154012
vt 0.780953 0.155715
vt 0.508896 0.574264
vt 0.505049 0.617614
vt 0.739813 0.158182
vt 0.501677 0.658347
vt 0.701838 0.130464
vt 0.702769 0.161320
vt 0.498910 0.694897
vt 0.280560 0.559683
vt 0.240275 0.553796
vt 0.990740 0.155675
vt 0.953794 0.153988
vt 0.197420 0.546759
vt 0.912722 0.153132
vt 0.153641 0.538842
vt 0.869101 0.153140
vt 0.513070 0.529963
vt 0.233576 0.577449
vt 0.192806 0.563051
vt 0.954205 0.195100
vt 0.913158 0.196777
vt 0.151289 0.547148
vt 0.869546 0.197640
vt 0.521752 0.529963
vt 0.825044 0.197657
vt 0.525926 0.574264
vt 0.781364 0.196827
vt 0.529773 0.617614
vt 0.740182 0.195182
vt 0.533145 0.658347
vt 0.703083 0.192786
vt 0.535912 0.694897
vt 0.272033 0.589788
vt 0.991110 0.192675
vt 0.780953 0.237158
vt 0.739813 0.231479
vt 0.554022 0.612980
vt 0.564008 0.652449
vt 0.702769 0.223653
vt 0.572203 0.687963
vt 0.258010 0.617536
vt 0.222558 0.599250
vt 0.990740 0.228972
vt 0.953794 0.235431
vt 0.185216 0.578068
vt 0.912722 0.239591
vt 0.147420 0.554804
vt 0.869101 0.241293
vt 0.530267 0.528336
vt 0.824608 0.240472
vt 0.542629 0.571072
vt 0.174944 0.591233
vt 0.142183 0.561515
vt 0.911431 0.279931
vt 0.867784 0.282423
vt 0.538288 0.525144
vt 0.823317 0.280811
vt 0.558363 0.564812
vt 0.779736 0.275156
vt 0.576864 0.603892
vt 0.738718 0.265677
vt 0.593080 0.640882
vt 0.701838 0.252736
vt 0.606388 0.674361
vt 0.239029 0.641861
vt 0.207645 0.618362
vt 0.989645 0.263170
vt 0.952578 0.273429
vt 0.597421 0.590697
vt 0.619244 0.624088
vt 0.267891 0.660826
vt 0.240600 0.684304
vt 0.215820 0.661827
vt 0.637154 0.654613
vt 0.189410 0.634050
vt 0.987867 0.293955
vt 0.950602 0.307636
vt 0.162383 0.602038
vt 0.909333 0.316244
vt 0.135780 0.567024
vt 0.865646 0.319448
vt 0.545507 0.520511
vt 0.821219 0.317125
vt 0.572523 0.555723
vt 0.777761 0.309363
vt 0.736940 0.296462
vt 0.683876 0.509537
vt 0.686643 0.465820
vt 0.722934 0.463360
vt 0.720878 0.507029
vt 0.551646 0.514614
vt 0.128456 0.571118
vt 0.686643 0.553938
vt 0.722934 0.551478
vt 0.584565 0.544156
vt 0.694838 0.597317
vt 0.729024 0.595000
vt 0.614903 0.573904
vt 0.708147 0.638007
vt 0.738913 0.635921
vt 0.641495 0.602714
vt 0.726057 0.674444
vt 0.752221 0.672670
vt 0.663319 0.629480
vt 0.189275 0.676669
vt 0.168553 0.645710
vt 0.694838 0.424467
vt 0.708147 0.387067
vt 0.738913 0.384982
vt 0.729024 0.422150
vt 0.148017 0.610070
vt 0.773098 0.634485
vt 0.781293 0.671449
vt 0.658978 0.577581
vt 0.683876 0.599926
vt 0.160414 0.685814
vt 0.145877 0.652896
vt 0.773098 0.383545
vt 0.767008 0.420553
vt 0.132397 0.615020
vt 0.763258 0.461665
vt 0.120493 0.573642
vt 0.761992 0.505301
vt 0.556469 0.507679
vt 0.763258 0.549784
vt 0.594026 0.530554
vt 0.767008 0.593404
vt 0.628639 0.554156
vt 0.559792 0.499974
vt 0.112197 0.574496
vt 0.805639 0.504420
vt 0.806067 0.548920
vt 0.600543 0.515440
vt 0.807333 0.592590
vt 0.638101 0.532215
vt 0.809389 0.633753
vt 0.671020 0.549654
vt 0.812156 0.670826
vt 0.781293 0.352063
vt 0.812156 0.351440
vt 0.809389 0.382813
vt 0.130345 0.688913
vt 0.122252 0.655330
vt 0.807333 0.419740
vt 0.116125 0.616697
vt 0.806067 0.460802
vt 0.843624 0.351440
vt 0.846391 0.382813
vt 0.815528 0.702385
vt 0.843624 0.670826
vt 0.840252 0.702385
vt 0.848447 0.419740
vt 0.098587 0.652920
vt 0.099824 0.615037
vt 0.849713 0.460802
vt 0.103887 0.573650
vt 0.850141 0.504420
vt 0.561485 0.491795
vt 0.849713 0.548920
vt 0.603866 0.499395
vt 0.848447 0.592590
vt 0.642924 0.508921
vt 0.846391 0.633753
vt 0.677159 0.520007
vt 0.893788 0.505301
vt 0.892522 0.549784
vt 0.561485 0.483455
vt 0.603866 0.483036
vt 0.888772 0.593404
vt 0.642924 0.485171
vt 0.882682 0.634485
vt 0.677159 0.489780
vt 0.874487 0.671449
vt 0.874487 0.352063
vt 0.882682 0.383545
vt 0.864501 0.702874
vt 0.888772 0.420553
vt 0.075791 0.645757
vt 0.084122 0.610103
vt 0.892522 0.461665
vt 0.095882 0.571135
vt 0.903559 0.672670
vt 0.887343 0.703834
vt 0.916867 0.384982
vt 0.926756 0.422150
vt 0.054740 0.634118
vt 0.069621 0.602086
vt 0.932846 0.463360
vt 0.088490 0.567048
vt 0.934902 0.507029
vt 0.559791 0.475275
vt 0.932846 0.551478
vt 0.600543 0.466991
vt 0.926756 0.595000
vt 0.638101 0.461878
vt 0.916867 0.635921
vt 0.671020 0.460133
vt 0.903559 0.353285
vt 0.969137 0.553938
vt 0.960942 0.597317
vt 0.594026 0.451877
vt 0.628639 0.439936
vt 0.947633 0.638007
vt 0.658978 0.432206
vt 0.929723 0.674444
vt 0.929723 0.355058
vt 0.947633 0.387067
vt 0.044418 0.661914
vt 0.020876 0.641971
vt 0.036243 0.618449
vt 0.960942 0.424467
vt 0.056880 0.591293
vt 0.969137 0.465820
vt 0.081995 0.561545
vt 0.971904 0.509537
vt 0.556469 0.467570
vt 0.021011 0.599353
vt 0.046388 0.578139
vt 0.990014 0.427416
vt 1.000000 0.468951
vt 0.076646 0.554840
vt 0.000000 0.159685
vt 0.003809 0.115942
vt 0.034702 0.113120
vt 0.031498 0.156807
vt 0.551646 0.460636
vt 0.002929 0.204056
vt 0.033821 0.201234
vt 0.584565 0.438275
vt 1.000000 0.557069
vt 0.990014 0.600266
vt 0.614903 0.420189
vt 0.973798 0.640661
vt 0.641495 0.407073
vt 0.951974 0.676701
vt 0.683876 0.428984
vt 0.663319 0.399430
vt 0.001489 0.617666
vt 0.973798 0.389722
vt 0.572523 0.426708
vt 0.597421 0.403396
vt 0.054484 0.285513
vt 0.041583 0.244693
vt 0.075789 0.242717
vt 0.085269 0.283735
vt 0.619244 0.385699
vt 0.072029 0.322127
vt 0.098210 0.320615
vt 0.056991 0.034586
vt 0.075220 0.002758
vt 0.101401 0.001246
vt 0.087776 0.032808
vt 0.093544 0.353128
vt 0.114114 0.351940
vt 0.043310 0.071851
vt 0.077516 0.069875
vt 0.009629 0.577563
vt 0.038548 0.563129
vt 0.071015 0.111023
vt 0.072649 0.547188
vt 0.068523 0.154669
vt 0.545507 0.454739
vt 0.070135 0.199137
vt 0.115515 0.068659
vt 0.111355 0.109731
vt 0.033661 0.546842
vt 0.070158 0.538885
vt 0.109653 0.153352
vt 0.538288 0.450106
vt 0.110474 0.197845
vt 0.558363 0.417619
vt 0.113788 0.241500
vt 0.576864 0.390201
vt 0.119467 0.282640
vt 0.593080 0.368905
vt 0.127293 0.319684
vt 0.130484 0.000314
vt 0.121974 0.031713
vt 0.136964 0.351208
vt 0.002534 0.553916
vt 0.154119 0.241090
vt 0.155764 0.282271
vt 0.554022 0.381112
vt 0.564008 0.357337
vt 0.158160 0.319370
vt 0.161351 0.000000
vt 0.158271 0.031344
vt 0.161217 0.350961
vt 0.155846 0.068248
vt -0.000000 0.529323
vt 0.031916 0.529901
vt 0.154169 0.109295
vt 0.069268 0.530248
vt 0.153306 0.152907
vt 0.530267 0.446914
vt 0.153289 0.197409
vt 0.542629 0.411359
vt 0.033378 0.512959
vt 0.070014 0.521611
vt 0.197814 0.109731
vt 0.197806 0.153352
vt 0.521752 0.445287
vt 0.196934 0.197845
vt 0.525926 0.408167
vt 0.195231 0.241500
vt 0.529773 0.376479
vt 0.192764 0.282640
vt 0.533145 0.351440
vt 0.189626 0.319684
vt 0.192817 0.000314
vt 0.195271 0.031713
vt 0.185939 0.351208
vt 0.196958 0.068659
vt 0.002123 0.504727
vt 0.505049 0.376479
vt 0.501677 0.351440
vt 0.229046 0.283735
vt 0.220482 0.320615
vt 0.223673 0.001246
vt 0.231553 0.032808
vt 0.210182 0.351940
vt 0.237272 0.069875
vt 0.008823 0.481073
vt 0.037993 0.496666
vt 0.240611 0.111023
vt 0.072366 0.513306
vt 0.241442 0.154669
vt 0.513070 0.445287
vt 0.239731 0.199137
vt 0.508896 0.408167
vt 0.235545 0.242717
vt 0.280917 0.113120
vt 0.282537 0.156807
vt 0.504555 0.446914
vt 0.076235 0.505650
vt 0.280037 0.201234
vt 0.492193 0.411359
vt 0.273512 0.244693
vt 0.480800 0.381112
vt 0.263215 0.285513
vt 0.470814 0.357337
vt 0.249540 0.322127
vt 0.252731 0.002758
vt 0.265722 0.034586
vt 0.233013 0.353128
vt 0.275239 0.071851
vt 0.019841 0.459272
vt 0.045582 0.481649
vt 0.293959 0.287906
vt 0.275686 0.324162
vt 0.278877 0.004792
vt 0.296466 0.036979
vt -0.000000 0.439377
vt 0.018981 0.415053
vt 0.034754 0.440160
vt 0.309400 0.074510
vt 0.055855 0.468485
vt 0.317182 0.115942
vt 0.081472 0.498939
vt 0.319512 0.159685
vt 0.496534 0.450106
vt 0.316301 0.204056
vt 0.476459 0.417619
vt 0.307673 0.247351
vt 0.457958 0.390201
vt 0.441742 0.368905
vt 0.087875 0.493430
vt 0.350946 0.163191
vt 0.347131 0.207495
vt 0.489315 0.454739
vt 0.462299 0.426708
vt 0.336714 0.250591
vt 0.437401 0.403396
vt 0.320095 0.290822
vt 0.415577 0.385699
vt 0.297913 0.326642
vt 0.377933 0.064904
vt 0.399024 0.028431
vt 0.421316 0.030239
vt 0.404145 0.067030
vt 0.042190 0.395086
vt 0.052989 0.424473
vt 0.362535 0.105618
vt 0.391661 0.107980
vt 0.068415 0.457679
vt 0.353422 0.149008
vt 0.384342 0.151516
vt 0.350946 0.193407
vt 0.382471 0.195964
vt 0.068735 0.380245
vt 0.073846 0.412812
vt 0.434947 0.068494
vt 0.425886 0.109607
vt 0.082781 0.449647
vt 0.420675 0.153243
vt 0.095199 0.489335
vt 0.419517 0.197725
vt 0.483176 0.460636
vt 0.386120 0.239616
vt 0.422453 0.241343
vt 0.450257 0.438275
vt 0.395148 0.280795
vt 0.429373 0.282422
vt 0.419918 0.420189
vt 0.409208 0.317919
vt 0.440010 0.319383
vt 0.393326 0.407073
vt 0.427760 0.349560
vt 0.453955 0.350805
vt 0.447511 0.031485
vt 0.463096 0.000000
s 0
usemtl Material.002
f 6/1/1 5/2/1 16/3/1 17/4/1
f 475/5/2 474/6/2 9/7/2 10/8/2
f 478/9/3 6/1/3 17/4/3 18/10/3
f 2/11/4 475/5/4 10/8/4 11/12/4
f 7/13/5 478/9/5 18/10/5 19/14/5
f 476/15/6 2/16/6 11/17/6 12/18/6
f 479/19/7 7/13/7 19/14/7 20/20/7
f 3/21/8 476/15/8 12/18/8 13/22/8
f 480/23/9 479/24/9 20/25/9 21/26/9
f 477/27/10 3/21/10 13/22/10 14/28/10
f 481/29/11 480/23/11 21/26/11 22/30/11
f 4/31/12 477/27/12 14/28/12 15/32/12
f 482/33/13 481/29/13 22/30/13 23/34/13
f 5/2/14 4/31/14 15/32/14 16/3/14
f 474/6/15 1/35/15 9/7/15
f 8/36/16 482/33/16 23/34/16
f 23/34/17 22/30/17 37/37/17 38/38/17
f 16/3/18 15/32/18 30/39/18 31/40/18
f 9/7/19 1/35/19 24/41/19
f 8/36/20 23/34/20 38/38/20
f 17/4/21 16/3/21 31/40/21 32/42/21
f 10/8/22 9/7/22 24/41/22 25/43/22
f 18/10/23 17/4/23 32/42/23 33/44/23
f 11/12/24 10/8/24 25/43/24 26/45/24
f 19/14/25 18/10/25 33/44/25 34/46/25
f 12/18/26 11/17/26 26/47/26 27/48/26
f 20/20/27 19/14/27 34/46/27 35/49/27
f 13/22/28 12/18/28 27/48/28 28/50/28
f 21/26/29 20/25/29 35/51/29 36/52/29
f 14/28/30 13/22/30 28/50/30 29/53/30
f 22/30/31 21/26/31 36/52/31 37/37/31
f 15/32/32 14/28/32 29/53/32 30/39/32
f 35/49/33 34/46/33 49/54/33 50/55/33
f 28/50/34 27/48/34 42/56/34 43/57/34
f 36/52/35 35/51/35 50/58/35 51/59/35
f 29/53/36 28/50/36 43/57/36 44/60/36
f 37/37/37 36/52/37 51/59/37 52/61/37
f 30/39/38 29/53/38 44/60/38 45/62/38
f 38/38/39 37/37/39 52/61/39 53/63/39
f 31/40/40 30/39/40 45/62/40 46/64/40
f 24/41/41 1/35/41 39/65/41
f 8/36/42 38/38/42 53/63/42
f 32/42/43 31/40/43 46/64/43 47/66/43
f 25/43/44 24/41/44 39/65/44 40/67/44
f 33/44/45 32/42/45 47/66/45 48/68/45
f 26/45/46 25/43/46 40/67/46 41/69/46
f 34/46/47 33/44/47 48/68/47 49/54/47
f 27/70/48 26/45/48 41/69/48 42/71/48
f 39/65/49 1/35/49 54/72/49
f 8/36/50 53/63/50 68/73/50
f 47/66/51 46/64/51 61/74/51 62/75/51
f 40/67/52 39/65/52 54/72/52 55/76/52
f 48/68/53 47/66/53 62/75/53 63/77/53
f 41/69/54 40/67/54 55/76/54 56/78/54
f 49/54/55 48/68/55 63/77/55 64/79/55
f 42/71/56 41/69/56 56/78/56 57/80/56
f 50/58/57 49/81/57 64/82/57 65/83/57
f 43/57/58 42/56/58 57/84/58 58/85/58
f 51/59/59 50/58/59 65/83/59 66/86/59
f 44/60/60 43/57/60 58/85/60 59/87/60
f 52/61/61 51/59/61 66/86/61 67/88/61
f 45/62/62 44/60/62 59/87/62 60/89/62
f 53/63/63 52/61/63 67/88/63 68/73/63
f 46/64/64 45/62/64 60/89/64 61/74/64
f 58/85/65 57/84/65 72/90/65 73/91/65
f 66/86/66 65/83/66 80/92/66 81/93/66
f 59/87/67 58/85/67 73/91/67 74/94/67
f 67/88/68 66/86/68 81/93/68 82/95/68
f 60/89/69 59/87/69 74/94/69 75/96/69
f 68/73/70 67/88/70 82/95/70 83/97/70
f 61/74/71 60/89/71 75/96/71 76/98/71
f 54/72/72 1/35/72 69/99/72
f 8/36/73 68/73/73 83/97/73
f 62/75/74 61/74/74 76/98/74 77/100/74
f 55/76/75 54/72/75 69/99/75 70/101/75
f 63/77/76 62/75/76 77/100/76 78/102/76
f 56/78/77 55/76/77 70/101/77 71/103/77
f 64/79/78 63/77/78 78/102/78 79/104/78
f 57/80/79 56/78/79 71/103/79 72/105/79
f 65/83/80 64/82/80 79/106/80 80/92/80
f 77/100/81 76/98/81 91/107/81 92/108/81
f 70/101/82 69/99/82 84/109/82 85/110/82
f 78/102/83 77/100/83 92/108/83 93/111/83
f 71/103/84 70/101/84 85/110/84 86/112/84
f 79/106/85 78/113/85 93/114/85 94/115/85
f 72/105/86 71/103/86 86/112/86 87/116/86
f 80/92/87 79/106/87 94/115/87 95/117/87
f 73/118/88 72/105/88 87/116/88 88/119/88
f 81/93/89 80/92/89 95/117/89 96/120/89
f 74/94/90 73/91/90 88/121/90 89/122/90
f 82/95/91 81/93/91 96/120/91 97/123/91
f 75/96/92 74/94/92 89/122/92 90/124/92
f 83/97/93 82/95/93 97/123/93 98/125/93
f 76/98/94 75/96/94 90/124/94 91/107/94
f 69/99/95 1/35/95 84/109/95
f 8/36/96 83/97/96 98/125/96
f 96/120/97 95/117/97 110/126/97 111/127/97
f 89/128/98 88/119/98 103/129/98 104/130/98
f 97/123/99 96/120/99 111/127/99 112/131/99
f 90/132/100 89/133/100 104/134/100 105/135/100
f 98/125/101 97/123/101 112/131/101 113/136/101
f 91/137/102 90/132/102 105/135/102 106/138/102
f 84/109/103 1/35/103 99/139/103
f 8/36/104 98/125/104 113/136/104
f 92/140/105 91/137/105 106/138/105 107/141/105
f 85/110/106 84/109/106 99/139/106 100/142/106
f 93/143/107 92/140/107 107/141/107 108/144/107
f 86/112/108 85/110/108 100/142/108 101/145/108
f 94/115/109 93/114/109 108/146/109 109/147/109
f 87/116/110 86/112/110 101/145/110 102/148/110
f 95/117/111 94/115/111 109/147/111 110/126/111
f 88/119/112 87/116/112 102/148/112 103/129/112
f 100/142/113 99/139/113 114/149/113 115/150/113
f 108/144/114 107/141/114 122/151/114 123/152/114
f 101/145/115 100/142/115 115/150/115 116/153/115
f 109/154/116 108/144/116 123/152/116 124/155/116
f 102/148/117 101/145/117 116/153/117 117/156/117
f 110/126/118 109/147/118 124/157/118 125/158/118
f 103/129/119 102/148/119 117/156/119 118/159/119
f 111/127/120 110/126/120 125/158/120 126/160/120
f 104/134/121 103/161/121 118/162/121 119/163/121
f 112/131/122 111/127/122 126/160/122 127/164/122
f 105/135/123 104/134/123 119/163/123 120/165/123
f 113/136/124 112/131/124 127/164/124 128/166/124
f 106/138/125 105/135/125 120/165/125 121/167/125
f 99/139/126 1/35/126 114/149/126
f 8/36/127 113/136/127 128/166/127
f 107/141/128 106/138/128 121/167/128 122/151/128
f 119/163/129 118/162/129 133/168/129 134/169/129
f 127/164/130 126/160/130 141/170/130 142/171/130
f 120/165/131 119/163/131 134/169/131 135/172/131
f 128/166/132 127/164/132 142/171/132 143/173/132
f 121/167/133 120/165/133 135/172/133 136/174/133
f 114/149/134 1/35/134 129/175/134
f 8/36/135 128/166/135 143/173/135
f 122/151/136 121/167/136 136/174/136 137/176/136
f 115/150/137 114/149/137 129/175/137 130/177/137
f 123/152/138 122/151/138 137/176/138 138/178/138
f 116/153/139 115/150/139 130/177/139 131/179/139
f 124/155/140 123/152/140 138/178/140 139/180/140
f 117/156/141 116/153/141 131/179/141 132/181/141
f 125/158/142 124/157/142 139/182/142 140/183/142
f 118/159/143 117/156/143 132/181/143 133/184/143
f 126/160/144 125/158/144 140/183/144 141/170/144
f 138/178/145 137/176/145 152/185/145 153/186/145
f 131/179/146 130/177/146 145/187/146 146/188/146
f 139/180/147 138/178/147 153/186/147 154/189/147
f 132/181/148 131/179/148 146/188/148 147/190/148
f 140/191/149 139/180/149 154/189/149 155/192/149
f 133/184/150 132/181/150 147/190/150 148/193/150
f 141/170/151 140/183/151 155/194/151 156/195/151
f 134/169/152 133/168/152 148/196/152 149/197/152
f 142/171/153 141/170/153 156/195/153 157/198/153
f 135/172/154 134/169/154 149/197/154 150/199/154
f 143/173/155 142/171/155 157/198/155 158/200/155
f 136/174/156 135/172/156 150/199/156 151/201/156
f 129/175/157 1/35/157 144/202/157
f 8/36/158 143/173/158 158/200/158
f 137/176/159 136/174/159 151/201/159 152/185/159
f 130/177/160 129/175/160 144/202/160 145/187/160
f 157/198/161 156/195/161 171/203/161 172/204/161
f 150/199/162 149/197/162 164/205/162 165/206/162
f 158/200/163 157/198/163 172/204/163 173/207/163
f 151/201/164 150/199/164 165/206/164 166/208/164
f 144/202/165 1/35/165 159/209/165
f 8/36/166 158/200/166 173/207/166
f 152/185/167 151/201/167 166/208/167 167/210/167
f 145/187/168 144/202/168 159/209/168 160/211/168
f 153/186/169 152/185/169 167/210/169 168/212/169
f 146/188/170 145/187/170 160/211/170 161/213/170
f 154/189/171 153/186/171 168/212/171 169/214/171
f 147/190/172 146/188/172 161/213/172 162/215/172
f 155/192/173 154/189/173 169/214/173 170/216/173
f 148/193/174 147/190/174 162/215/174 163/217/174
f 156/195/175 155/194/175 170/218/175 171/203/175
f 149/197/176 148/196/176 163/219/176 164/205/176
f 169/214/177 168/212/177 183/220/177 184/221/177
f 162/215/178 161/213/178 176/222/178 177/223/178
f 170/216/179 169/214/179 184/221/179 185/224/179
f 163/217/180 162/215/180 177/223/180 178/225/180
f 171/203/181 170/218/181 185/226/181 186/227/181
f 164/205/182 163/219/182 178/228/182 179/229/182
f 172/204/183 171/203/183 186/227/183 187/230/183
f 165/206/184 164/205/184 179/229/184 180/231/184
f 173/207/185 172/204/185 187/230/185 188/232/185
f 166/208/186 165/206/186 180/231/186 181/233/186
f 159/209/187 1/35/187 174/234/187
f 8/36/188 173/207/188 188/232/188
f 167/210/189 166/208/189 181/233/189 182/235/189
f 160/211/190 159/209/190 174/234/190 175/236/190
f 168/212/191 167/210/191 182/235/191 183/220/191
f 161/213/192 160/211/192 175/236/192 176/222/192
f 188/232/193 187/230/193 202/237/193 203/238/193
f 181/233/194 180/231/194 195/239/194 196/240/194
f 174/234/195 1/35/195 189/241/195
f 8/36/196 188/232/196 203/238/196
f 182/235/197 181/233/197 196/240/197 197/242/197
f 175/236/198 174/234/198 189/241/198 190/243/198
f 183/220/199 182/235/199 197/242/199 198/244/199
f 176/222/200 175/236/200 190/243/200 191/245/200
f 184/221/201 183/220/201 198/244/201 199/246/201
f 177/223/202 176/222/202 191/245/202 192/247/202
f 185/224/203 184/221/203 199/246/203 200/248/203
f 178/225/204 177/223/204 192/247/204 193/249/204
f 186/227/205 185/226/205 200/250/205 201/251/205
f 179/229/206 178/228/206 193/252/206 194/253/206
f 187/230/207 186/227/207 201/251/207 202/237/207
f 180/231/208 179/229/208 194/253/208 195/239/208
f 192/247/209 191/245/209 206/254/209 207/255/209
f 200/250/210 199/256/210 214/257/210 215/258/210
f 193/249/211 192/247/211 207/255/211 208/259/211
f 201/251/212 200/250/212 215/258/212 216/260/212
f 194/253/213 193/252/213 208/261/213 209/262/213
f 202/237/214 201/251/214 216/260/214 217/263/214
f 195/239/215 194/253/215 209/262/215 210/264/215
f 203/238/216 202/237/216 217/263/216 218/265/216
f 196/240/217 195/239/217 210/264/217 211/266/217
f 189/241/218 1/35/218 204/267/218
f 8/36/219 203/238/219 218/265/219
f 197/242/220 196/240/220 211/266/220 212/268/220
f 190/243/221 189/241/221 204/267/221 205/269/221
f 198/244/222 197/242/222 212/268/222 213/270/222
f 191/245/223 190/243/223 205/269/223 206/254/223
f 199/246/224 198/244/224 213/270/224 214/271/224
f 211/272/225 210/273/225 225/274/225 226/275/225
f 204/267/226 1/35/226 219/276/226
f 8/36/227 218/265/227 233/277/227
f 212/278/228 211/272/228 226/275/228 227/279/228
f 205/269/229 204/267/229 219/276/229 220/280/229
f 213/281/230 212/278/230 227/279/230 228/282/230
f 206/254/231 205/269/231 220/280/231 221/283/231
f 214/284/232 213/281/232 228/282/232 229/285/232
f 207/255/233 206/254/233 221/283/233 222/286/233
f 215/287/234 214/284/234 229/285/234 230/288/234
f 208/259/235 207/255/235 222/286/235 223/289/235
f 216/260/236 215/258/236 230/290/236 231/291/236
f 209/292/237 208/293/237 223/294/237 224/295/237
f 217/263/238 216/260/238 231/291/238 232/296/238
f 210/273/239 209/292/239 224/295/239 225/274/239
f 218/265/240 217/263/240 232/296/240 233/277/240
f 230/288/241 229/285/241 244/297/241 245/298/241
f 223/289/242 222/286/242 237/299/242 238/300/242
f 231/291/243 230/290/243 245/301/243 246/302/243
f 224/295/244 223/294/244 238/303/244 239/304/244
f 232/296/245 231/291/245 246/302/245 247/305/245
f 225/274/246 224/295/246 239/304/246 240/306/246
f 233/277/247 232/296/247 247/305/247 248/307/247
f 226/275/248 225/274/248 240/306/248 241/308/248
f 219/276/249 1/35/249 234/309/249
f 8/36/250 233/277/250 248/307/250
f 227/279/251 226/275/251 241/308/251 242/310/251
f 220/280/252 219/276/252 234/309/252 235/311/252
f 228/282/253 227/279/253 242/310/253 243/312/253
f 221/283/254 220/280/254 235/311/254 236/313/254
f 229/285/255 228/282/255 243/312/255 244/297/255
f 222/286/256 221/283/256 236/313/256 237/299/256
f 234/309/257 1/35/257 249/314/257
f 8/36/258 248/307/258 263/315/258
f 242/310/259 241/308/259 256/316/259 257/317/259
f 235/311/260 234/309/260 249/314/260 250/318/260
f 243/312/261 242/310/261 257/317/261 258/319/261
f 236/313/262 235/311/262 250/318/262 251/320/262
f 244/297/263 243/312/263 258/319/263 259/321/263
f 237/299/264 236/313/264 251/320/264 252/322/264
f 245/298/265 244/297/265 259/321/265 260/323/265
f 238/303/266 237/324/266 252/325/266 253/326/266
f 246/302/267 245/301/267 260/327/267 261/328/267
f 239/304/268 238/303/268 253/326/268 254/329/268
f 247/305/269 246/302/269 261/328/269 262/330/269
f 240/306/270 239/304/270 254/329/270 255/331/270
f 248/307/271 247/305/271 262/330/271 263/315/271
f 241/308/272 240/306/272 255/331/272 256/316/272
f 253/326/273 252/325/273 267/332/273 268/333/273
f 261/334/274 260/323/274 275/335/274 276/336/274
f 254/329/275 253/326/275 268/333/275 269/337/275
f 262/330/276 261/328/276 276/338/276 277/339/276
f 255/331/277 254/329/277 269/337/277 270/340/277
f 263/315/278 262/330/278 277/339/278 278/341/278
f 256/316/279 255/331/279 270/340/279 271/342/279
f 249/314/280 1/35/280 264/343/280
f 8/36/281 263/315/281 278/341/281
f 257/317/282 256/316/282 271/342/282 272/344/282
f 250/318/283 249/314/283 264/343/283 265/345/283
f 258/319/284 257/317/284 272/344/284 273/346/284
f 251/320/285 250/318/285 265/345/285 266/347/285
f 259/321/286 258/319/286 273/346/286 274/348/286
f 252/322/287 251/320/287 266/347/287 267/349/287
f 260/323/288 259/321/288 274/348/288 275/335/288
f 272/344/289 271/342/289 286/350/289 287/351/289
f 265/345/290 264/343/290 279/352/290 280/353/290
f 273/346/291 272/344/291 287/351/291 288/354/291
f 266/347/292 265/345/292 280/353/292 281/355/292
f 274/348/293 273/346/293 288/354/293 289/356/293
f 267/349/294 266/347/294 281/355/294 282/357/294
f 275/335/295 274/348/295 289/356/295 290/358/295
f 268/333/296 267/332/296 282/359/296 283/360/296
f 276/336/297 275/335/297 290/358/297 291/361/297
f 269/337/298 268/333/298 283/360/298 284/362/298
f 277/339/299 276/338/299 291/363/299 292/364/299
f 270/340/300 269/337/300 284/362/300 285/365/300
f 278/341/301 277/339/301 292/364/301 293/366/301
f 271/342/302 270/340/302 285/365/302 286/350/302
f 264/343/303 1/35/303 279/352/303
f 8/36/304 278/341/304 293/366/304
f 291/361/305 290/358/305 305/367/305 306/368/305
f 284/362/306 283/360/306 298/369/306 299/370/306
f 292/364/307 291/363/307 306/371/307 307/372/307
f 285/365/308 284/362/308 299/370/308 300/373/308
f 293/366/309 292/364/309 307/372/309 308/374/309
f 286/350/310 285/365/310 300/373/310 301/375/310
f 279/352/311 1/35/311 294/376/311
f 8/36/312 293/366/312 308/374/312
f 287/351/313 286/350/313 301/375/313 302/377/313
f 280/353/314 279/352/314 294/376/314 295/378/314
f 288/354/315 287/351/315 302/377/315 303/379/315
f 281/355/316 280/353/316 295/378/316 296/380/316
f 289/356/317 288/354/317 303/379/317 304/381/317
f 282/357/318 281/355/318 296/380/318 297/382/318
f 290/358/319 289/356/319 304/381/319 305/367/319
f 283/360/320 282/359/320 297/383/320 298/369/320
f 303/379/321 302/377/321 317/384/321 318/385/321
f 296/380/322 295/378/322 310/386/322 311/387/322
f 304/381/323 303/379/323 318/385/323 319/388/323
f 297/382/324 296/380/324 311/387/324 312/389/324
f 305/367/325 304/381/325 319/388/325 320/390/325
f 298/369/326 297/383/326 312/391/326 313/392/326
f 306/371/327 305/393/327 320/394/327 321/395/327
f 299/370/328 298/369/328 313/392/328 314/396/328
f 307/372/329 306/371/329 321/395/329 322/397/329
f 300/373/330 299/370/330 314/396/330 315/398/330
f 308/374/331 307/372/331 322/397/331 323/399/331
f 301/375/332 300/373/332 315/398/332 316/400/332
f 294/376/333 1/35/333 309/401/333
f 8/36/334 308/374/334 323/399/334
f 302/377/335 301/375/335 316/400/335 317/384/335
f 295/378/336 294/376/336 309/401/336 310/386/336
f 322/397/337 321/395/337 336/402/337 337/403/337
f 315/398/338 314/396/338 329/404/338 330/405/338
f 323/399/339 322/397/339 337/403/339 338/406/339
f 316/407/340 315/408/340 330/409/340 331/410/340
f 309/401/341 1/35/341 324/411/341
f 8/36/342 323/399/342 338/406/342
f 317/412/343 316/407/343 331/410/343 332/413/343
f 310/386/344 309/401/344 324/411/344 325/414/344
f 318/385/345 317/384/345 332/415/345 333/416/345
f 311/387/346 310/386/346 325/414/346 326/417/346
f 319/388/347 318/385/347 333/416/347 334/418/347
f 312/389/348 311/387/348 326/417/348 327/419/348
f 320/390/349 319/388/349 334/418/349 335/420/349
f 313/421/350 312/389/350 327/419/350 328/422/350
f 321/395/351 320/394/351 335/423/351 336/402/351
f 314/396/352 313/392/352 328/424/352 329/404/352
f 326/417/353 325/414/353 340/425/353 341/426/353
f 334/427/354 333/428/354 348/429/354 349/430/354
f 327/419/355 326/417/355 341/426/355 342/431/355
f 335/432/356 334/427/356 349/430/356 350/433/356
f 328/434/357 327/435/357 342/436/357 343/437/357
f 336/438/358 335/432/358 350/433/358 351/439/358
f 329/440/359 328/434/359 343/437/359 344/441/359
f 337/403/360 336/402/360 351/442/360 352/443/360
f 330/409/361 329/440/361 344/441/361 345/444/361
f 338/406/362 337/403/362 352/443/362 353/445/362
f 331/410/363 330/409/363 345/444/363 346/446/363
f 324/411/364 1/35/364 339/447/364
f 8/36/365 338/406/365 353/445/365
f 332/413/366 331/410/366 346/446/366 347/448/366
f 325/414/367 324/411/367 339/447/367 340/425/367
f 333/428/368 332/413/368 347/448/368 348/429/368
f 345/444/369 344/441/369 359/449/369 360/450/369
f 353/445/370 352/443/370 367/451/370 368/452/370
f 346/446/371 345/444/371 360/450/371 361/453/371
f 339/447/372 1/35/372 354/454/372
f 8/36/373 353/445/373 368/452/373
f 347/448/374 346/446/374 361/453/374 362/455/374
f 340/425/375 339/447/375 354/454/375 355/456/375
f 348/429/376 347/448/376 362/455/376 363/457/376
f 341/426/377 340/425/377 355/456/377 356/458/377
f 349/430/378 348/429/378 363/457/378 364/459/378
f 342/431/379 341/426/379 356/458/379 357/460/379
f 350/433/380 349/430/380 364/459/380 365/461/380
f 343/437/381 342/436/381 357/462/381 358/463/381
f 351/439/382 350/433/382 365/461/382 366/464/382
f 344/441/383 343/437/383 358/463/383 359/449/383
f 352/443/384 351/442/384 366/465/384 367/451/384
f 364/459/385 363/457/385 378/466/385 379/467/385
f 357/460/386 356/458/386 371/468/386 372/469/386
f 365/461/387 364/459/387 379/467/387 380/470/387
f 358/463/388 357/462/388 372/471/388 373/472/388
f 366/464/389 365/461/389 380/470/389 381/473/389
f 359/449/390 358/463/390 373/472/390 374/474/390
f 367/451/391 366/465/391 381/475/391 382/476/391
f 360/450/392 359/449/392 374/474/392 375/477/392
f 368/452/393 367/451/393 382/476/393 383/478/393
f 361/453/394 360/450/394 375/477/394 376/479/394
f 354/454/395 1/35/395 369/480/395
f 8/36/396 368/452/396 383/478/396
f 362/455/397 361/453/397 376/479/397 377/481/397
f 355/456/398 354/454/398 369/480/398 370/482/398
f 363/457/399 362/455/399 377/481/399 378/466/399
f 356/458/400 355/456/400 370/482/400 371/468/400
f 383/478/401 382/476/401 397/483/401 398/484/401
f 376/479/402 375/477/402 390/485/402 391/486/402
f 369/480/403 1/35/403 384/487/403
f 8/36/404 383/478/404 398/484/404
f 377/481/405 376/479/405 391/486/405 392/488/405
f 370/482/406 369/480/406 384/487/406 385/489/406
f 378/466/407 377/481/407 392/488/407 393/490/407
f 371/468/408 370/482/408 385/489/408 386/491/408
f 379/467/409 378/466/409 393/490/409 394/492/409
f 372/469/410 371/468/410 386/491/410 387/493/410
f 380/470/411 379/467/411 394/492/411 395/494/411
f 373/472/412 372/471/412 387/495/412 388/496/412
f 381/473/413 380/470/413 395/494/413 396/497/413
f 374/474/414 373/472/414 388/496/414 389/498/414
f 382/476/415 381/475/415 396/499/415 397/483/415
f 375/477/416 374/474/416 389/498/416 390/485/416
f 387/493/417 386/491/417 401/500/417 402/501/417
f 395/494/418 394/492/418 409/502/418 410/503/418
f 388/496/419 387/495/419 402/504/419 403/505/419
f 396/497/420 395/494/420 410/503/420 411/506/420
f 389/498/421 388/496/421 403/505/421 404/507/421
f 397/483/422 396/499/422 411/508/422 412/509/422
f 390/485/423 389/498/423 404/507/423 405/510/423
f 398/484/424 397/483/424 412/509/424 413/511/424
f 391/486/425 390/485/425 405/510/425 406/512/425
f 384/487/426 1/35/426 399/513/426
f 8/36/427 398/484/427 413/511/427
f 392/488/428 391/486/428 406/512/428 407/514/428
f 385/489/429 384/487/429 399/513/429 400/515/429
f 393/490/430 392/488/430 407/514/430 408/516/430
f 386/491/431 385/489/431 400/515/431 401/500/431
f 394/492/432 393/490/432 408/516/432 409/502/432
f 406/512/433 405/510/433 420/517/433 421/518/433
f 399/513/434 1/35/434 414/519/434
f 8/36/435 413/511/435 428/520/435
f 407/514/436 406/512/436 421/518/436 422/521/436
f 400/515/437 399/513/437 414/519/437 415/522/437
f 408/516/438 407/514/438 422/521/438 423/523/438
f 401/500/439 400/515/439 415/522/439 416/524/439
f 409/502/440 408/516/440 423/523/440 424/525/440
f 402/501/441 401/500/441 416/524/441 417/526/441
f 410/503/442 409/502/442 424/525/442 425/527/442
f 403/505/443 402/504/443 417/528/443 418/529/443
f 411/506/444 410/503/444 425/527/444 426/530/444
f 404/507/445 403/505/445 418/529/445 419/531/445
f 412/509/446 411/508/446 426/532/446 427/533/446
f 405/510/447 404/507/447 419/531/447 420/517/447
f 413/511/448 412/509/448 427/533/448 428/520/448
f 425/527/449 424/525/449 439/534/449 440/535/449
f 418/529/450 417/528/450 432/536/450 433/537/450
f 426/532/451 425/538/451 440/539/451 441/540/451
f 419/531/452 418/529/452 433/537/452 434/541/452
f 427/533/453 426/532/453 441/540/453 442/542/453
f 420/517/454 419/531/454 434/541/454 435/543/454
f 428/520/455 427/533/455 442/542/455 443/544/455
f 421/518/456 420/517/456 435/543/456 436/545/456
f 414/519/457 1/35/457 429/546/457
f 8/36/458 428/520/458 443/544/458
f 422/521/459 421/518/459 436/545/459 437/547/459
f 415/522/460 414/519/460 429/546/460 430/548/460
f 423/523/461 422/521/461 437/547/461 438/549/461
f 416/524/462 415/522/462 430/548/462 431/550/462
f 424/525/463 423/523/463 438/549/463 439/534/463
f 417/526/464 416/524/464 431/550/464 432/551/464
f 8/36/465 443/544/465 458/552/465
f 437/547/466 436/545/466 451/553/466 452/554/466
f 430/548/467 429/546/467 444/555/467 445/556/467
f 438/549/468 437/547/468 452/554/468 453/557/468
f 431/550/469 430/548/469 445/556/469 446/558/469
f 439/534/470 438/549/470 453/557/470 454/559/470
f 432/551/471 431/550/471 446/558/471 447/560/471
f 440/535/472 439/534/472 454/559/472 455/561/472
f 433/562/473 432/563/473 447/564/473 448/565/473
f 441/540/474 440/539/474 455/566/474 456/567/474
f 434/568/475 433/562/475 448/565/475 449/569/475
f 442/542/476 441/540/476 456/567/476 457/570/476
f 435/571/477 434/568/477 449/569/477 450/572/477
f 443/544/478 442/542/478 457/570/478 458/552/478
f 436/573/479 435/571/479 450/572/479 451/574/479
f 429/546/480 1/35/480 444/555/480
f 456/567/481 455/566/481 470/575/481 471/576/481
f 449/569/482 448/565/482 463/577/482 464/578/482
f 457/570/483 456/567/483 471/576/483 472/579/483
f 450/572/484 449/569/484 464/578/484 465/580/484
f 458/552/485 457/570/485 472/579/485 473/581/485
f 451/574/486 450/572/486 465/580/486 466/582/486
f 444/555/487 1/35/487 459/583/487
f 8/36/488 458/552/488 473/581/488
f 452/584/489 451/574/489 466/582/489 467/585/489
f 445/556/490 444/555/490 459/583/490 460/586/490
f 453/587/491 452/584/491 467/585/491 468/588/491
f 446/558/492 445/556/492 460/586/492 461/589/492
f 454/590/493 453/587/493 468/588/493 469/591/493
f 447/560/494 446/558/494 461/589/494 462/592/494
f 455/593/495 454/590/495 469/591/495 470/594/495
f 448/565/496 447/564/496 462/595/496 463/577/496
f 460/586/497 459/583/497 474/6/497 475/5/497
f 468/588/498 467/585/498 6/1/498 478/9/498
f 461/589/499 460/586/499 475/5/499 2/11/499
f 469/591/500 468/588/500 478/9/500 7/13/500
f 462/595/501 461/596/501 2/16/501 476/15/501
f 470/594/502 469/591/502 7/13/502 479/19/502
f 463/577/503 462/595/503 476/15/503 3/21/503
f 471/576/504 470/575/504 479/24/504 480/23/504
f 464/578/505 463/577/505 3/21/505 477/27/505
f 472/579/506 471/576/506 480/23/506 481/29/506
f 465/580/507 464/578/507 477/27/507 4/31/507
f 473/581/508 472/579/508 481/29/508 482/33/508
f 466/582/509 465/580/509 4/31/509 5/2/509
f 459/583/510 1/35/510 474/6/510
f 8/36/511 473/581/511 482/33/511
f 467/585/512 466/582/512 5/2/512 6/1/512
