# Blender 5.1.0
# www.blender.org
mtllib Chick.mtl
o Cube
v 0.701583 4.746732 -1.000000
v 0.701583 2.996761 -1.000000
v 0.701583 4.746732 1.000000
v 0.701583 2.996761 1.000000
v -0.701583 4.746732 -1.000000
v -0.701583 2.996761 -1.000000
v -0.701583 4.746732 1.000000
v -0.701583 2.996761 1.000000
v -0.701583 2.996761 0.657806
v 0.701583 4.746732 0.657806
v -0.701583 4.746732 0.657806
v 0.701583 2.996761 0.657806
v 0.701583 2.996761 -0.655697
v -0.701583 2.996761 -0.655697
v 0.701583 3.465628 -1.000000
v 0.701583 3.246732 1.000000
v -0.701583 3.246732 -1.000000
v -0.701583 3.246732 1.000000
v -0.701583 3.660904 0.657806
v 0.701583 3.693832 0.657806
v 0.684319 3.294167 -0.655697
v -0.701583 3.246732 -0.655697
v -0.701583 4.246732 1.000000
v 0.701583 4.246732 -1.000000
v 0.701583 4.246732 1.000000
v -0.701583 4.246732 -1.000000
v -0.701583 4.246732 0.657806
v 0.701583 4.246732 0.657806
v 0.701583 4.246732 -0.655697
v -0.701583 4.246732 -0.655697
v 1.036676 4.089944 0.657806
v 1.036676 3.910144 0.657806
v 1.036676 4.089944 -0.655697
v 1.036676 3.465628 -0.655697
v -1.047173 4.108251 0.657806
v -1.045935 3.927566 0.648997
v -1.045935 4.108251 -0.664506
v -1.045935 3.514716 -0.664506
v 0.509799 2.996761 1.000000
v 0.509799 4.746732 -1.000000
v 0.509799 4.746732 0.657806
v 0.509799 4.746732 0.088900
v 0.509799 3.465628 -1.000000
v 0.509799 4.246732 -1.000000
v 0.509799 2.996761 -1.000000
v 0.509799 4.746732 1.000000
v 0.509799 2.996761 0.657806
v 0.509799 2.996761 -0.655697
v 0.509799 3.246732 1.000000
v 0.509799 4.246732 1.000000
v -0.507253 2.996761 -1.000000
v -0.507253 4.746732 1.000000
v -0.507253 2.996761 0.657806
v -0.507253 2.996761 -0.655697
v -0.507253 3.246732 1.000000
v -0.507253 4.246732 1.000000
v -0.507253 2.996761 1.000000
v -0.507253 4.746732 -1.000000
v -0.507253 4.746732 0.657806
v -0.507253 4.746732 0.088900
v -0.507253 3.246732 -1.000000
v -0.507253 4.246732 -1.000000
v -0.507253 5.607732 -1.000000
v 0.509799 5.607732 -1.000000
v -0.507253 5.607732 0.088900
v 0.509799 5.607732 0.088900
v 0.509799 4.961982 -1.000000
v -0.507253 4.961982 -1.000000
v -0.507253 4.961982 0.088900
v 0.509799 4.961982 0.088900
v -0.507253 5.392482 -1.000000
v -0.507253 5.392482 0.088900
v 0.509799 5.392482 0.088900
v 0.509799 5.392482 -1.000000
v -0.252990 2.996761 -1.000000
v -0.252990 4.746732 1.000000
v -0.252990 2.996761 0.657806
v -0.252990 2.996761 -0.655697
v -0.252990 3.446605 1.000000
v -0.252990 4.246732 1.000000
v -0.252990 2.996761 1.000000
v -0.252990 4.746732 -1.000000
v -0.252990 4.746732 0.657806
v -0.252990 4.746732 0.088900
v -0.252990 3.246732 -1.000000
v -0.252990 4.246732 -1.000000
v -0.252990 5.607732 -1.000000
v -0.252990 5.607732 0.088900
v -0.252990 4.961982 0.088900
v -0.252990 4.961982 -1.000000
v -0.252990 5.392482 0.088900
v -0.252990 5.282216 -1.000000
v 0.255536 2.996761 1.000000
v 0.255536 4.746732 -1.000000
v 0.255536 4.746732 0.657806
v 0.255536 4.746732 0.088900
v 0.255536 3.246732 -1.000000
v 0.255536 4.246732 -1.000000
v 0.255536 5.607732 -1.000000
v 0.255536 5.607732 0.088900
v 0.255536 2.996761 -1.000000
v 0.255536 4.746732 1.000000
v 0.255536 2.996761 0.657806
v 0.255536 2.996761 -0.655697
v 0.255536 3.446605 1.000000
v 0.255536 4.246732 1.000000
v 0.255536 4.961982 -1.000000
v 0.255536 4.961982 0.088900
v 0.255536 5.282216 -1.000000
v 0.255536 5.392482 0.088900
v -0.104709 4.961982 -1.599662
v -0.104709 5.175914 -1.599662
v 0.109917 4.961982 -1.599662
v 0.109917 5.175914 -1.599662
v -0.701583 2.996761 0.001055
v 0.701583 2.996761 0.001055
v 0.701583 3.693832 0.001055
v -0.701583 3.660904 0.001055
v -0.701583 4.246732 0.001055
v 0.701583 4.246732 0.001055
v 1.036676 3.910144 0.001055
v 1.036676 4.089944 0.001055
v -1.045935 3.927566 -0.007755
v -1.047173 4.108251 0.001055
v 0.509799 4.746732 0.373353
v 0.509799 2.996761 0.001055
v -0.507253 2.996761 0.001055
v -0.507253 4.746732 0.373353
v -0.252990 2.996761 0.001055
v -0.252990 4.746732 0.373353
v 0.255536 4.746732 0.373353
v 0.255536 2.996761 0.001055
v 0.701583 2.996761 -0.327321
v -0.701583 3.246732 -0.327321
v -0.701583 4.246732 -0.327321
v -1.045935 3.514716 -0.336130
v -1.045935 4.108251 -0.336130
v -0.701583 2.996761 -0.327321
v 0.684319 3.297617 -0.327321
v 0.701583 4.246732 -0.327321
v 1.036676 3.465628 -0.327321
v 1.036676 4.089944 -0.327321
v 0.509799 4.746732 0.231126
v 0.509799 2.996761 -0.327321
v -0.507253 2.996761 -0.327321
v -0.507253 4.746732 0.231126
v -0.252990 2.996761 -0.327321
v -0.252990 4.746732 0.231126
v 0.255536 4.746732 0.231126
v 0.255536 2.996761 -0.327321
v 0.126113 3.446605 1.539890
v -0.128137 3.446605 1.539890
v -0.128137 2.996761 1.539890
v 0.126113 2.996761 1.539890
v -0.252990 3.446605 1.248186
v -0.507253 3.246732 1.248186
v -0.507253 2.996761 1.248186
v -0.252990 2.996761 1.248186
v 0.255536 2.996761 1.205994
v 0.509799 2.996761 1.205994
v 0.509799 3.246732 1.205994
v 0.255536 3.446605 1.205994
vn -0.0000 1.0000 -0.0000
vn -0.0000 -0.0000 1.0000
vn -0.0000 -1.0000 -0.0000
vn 1.0000 -0.0000 -0.0000
vn -0.0000 -0.0000 -1.0000
vn -1.0000 -0.0000 -0.0000
vn 0.9990 -0.0181 0.0411
vn 0.9983 0.0580 -0.0000
vn 0.9984 0.0573 -0.0006
vn -0.0256 -0.0000 0.9997
vn 0.4304 -0.9026 -0.0000
vn 0.4238 0.9058 -0.0000
vn -0.3731 0.9278 -0.0000
vn -1.0000 -0.0069 -0.0000
vn 0.0256 -0.0000 -0.9997
vn -0.6123 -0.7906 -0.0000
vn -0.9743 -0.0000 0.2253
vn -0.0000 0.9846 -0.1745
vn 0.9718 -0.0000 -0.2360
vn -0.9708 -0.0000 -0.2400
vn -0.4497 -0.5549 0.6999
vn -1.0000 -0.0067 -0.0037
vn -0.3720 0.9282 -0.0000
vn 0.5423 -0.8402 -0.0000
vn -0.6142 -0.7892 -0.0000
vn 0.3581 -0.5548 0.7510
vn 0.9986 -0.0000 -0.0525
vn 0.9724 -0.0000 0.2331
vn -0.6180 0.7862 -0.0000
vn 0.6180 0.7862 -0.0000
vn 0.9987 -0.0000 0.0501
vn 0.0195 -0.0486 0.9986
vn 0.4375 -0.8992 0.0094
vn -0.6123 -0.7907 -0.0000
vn -0.4487 -0.5563 0.6994
vn -0.3720 0.9283 -0.0000
vn -0.3731 0.9278 -0.0014
vn 0.2944 -0.6174 0.7295
vn 0.9984 0.0573 -0.0000
vt 0.357704 0.693343
vt 0.305445 0.651040
vt 0.357704 0.651040
vt 0.610884 0.430200
vt 0.687245 0.387898
vt 0.687245 0.430200
vt 0.305445 0.134714
vt 0.347193 0.082453
vt 0.347193 0.134714
vt 0.000000 0.451014
vt 0.076361 0.398754
vt 0.076361 0.451014
vt 0.263697 0.131494
vt 0.305445 0.207855
vt 0.263697 0.207855
vt 0.305445 0.360578
vt 0.263697 0.360578
vt 0.610890 0.305445
vt 0.687251 0.253184
vt 0.687251 0.305445
vt 0.229084 0.704199
vt 0.076361 0.651616
vt 0.229084 0.651616
vt 0.305445 0.387898
vt 0.347193 0.335315
vt 0.347193 0.387898
vt 0.267260 0.704199
vt 0.267260 0.651616
vt 0.839973 0.305445
vt 0.878149 0.253184
vt 0.878149 0.305445
vt 0.776720 0.253184
vt 0.267260 0.601465
vt 0.229084 0.601465
vt 0.839968 0.430200
vt 0.878144 0.387898
vt 0.878144 0.430200
vt 0.839973 0.052583
vt 0.878149 0.000000
vt 0.878149 0.052583
vt 0.267260 0.451014
vt 0.229084 0.398754
vt 0.267260 0.398754
vt 0.305445 0.398754
vt 0.263697 0.398754
vt 0.471741 0.893944
vt 0.546970 0.983615
vt 0.471741 0.983413
vt 0.160801 0.451014
vt 0.687251 0.052583
vt 0.839973 0.000000
vt 0.839968 0.387898
vt 0.619914 0.893944
vt 0.546970 0.978779
vt 0.546970 0.893944
vt 0.305445 0.235015
vt 0.347193 0.235015
vt 0.624463 0.843794
vt 0.471741 0.893944
vt 0.471741 0.843794
vt 0.878149 0.152883
vt 0.776720 0.152883
vt 0.777186 0.914737
vt 0.827336 0.987681
vt 0.777186 0.987681
vt 0.908680 0.693343
vt 0.981624 0.846065
vt 0.908680 0.846065
vt 0.878149 0.000000
vt 0.951093 0.100299
vt 0.878149 0.100299
vt 0.953373 0.588496
vt 0.878144 0.538346
vt 0.953373 0.538346
vt 0.624463 0.793643
vt 0.714134 0.893944
vt 0.624463 0.893944
vt 0.953378 0.200598
vt 0.878149 0.353320
vt 0.878149 0.200598
vt 0.357704 0.429646
vt 0.305445 0.387898
vt 0.357704 0.387898
vt 0.610884 0.693343
vt 0.687245 0.651595
vt 0.687245 0.693343
vt 0.839968 0.693343
vt 0.878144 0.651595
vt 0.878144 0.693343
vt 0.878144 0.688796
vt 0.953373 0.588496
vt 0.953373 0.688796
vt 0.839968 0.651595
vt 0.267260 0.398754
vt 0.305163 0.467455
vt 0.267260 0.467455
vt 0.042302 0.032873
vt 0.097651 0.000000
vt 0.097651 0.049714
vt 0.208348 0.131494
vt 0.208348 0.207855
vt 0.402542 0.082453
vt 0.402542 0.134714
vt 0.610884 0.485549
vt 0.695617 0.495514
vt 0.568587 0.134714
vt 0.610890 0.082453
vt 0.610890 0.134714
vt 0.000000 0.131494
vt 0.042302 0.207855
vt 0.000000 0.207855
vt 0.042302 0.360578
vt 0.000000 0.360578
vt 0.568587 0.387898
vt 0.610890 0.335315
vt 0.610890 0.387898
vt 0.042302 0.398754
vt 0.000000 0.398754
vt 0.401146 0.651040
vt 0.357704 0.595692
vt 0.401146 0.595692
vt 0.568587 0.235015
vt 0.610890 0.235015
vt 0.208348 0.360578
vt 0.208348 0.398754
vt 0.402542 0.335315
vt 0.402542 0.387898
vt 0.305445 0.595692
vt 0.809442 0.485549
vt 0.305445 0.693343
vt 0.471741 0.748691
vt 0.305445 0.748691
vt 0.164368 0.870498
vt 0.131494 0.704198
vt 0.164576 0.705255
vt 0.810059 0.914737
vt 0.777186 0.859389
vt 0.810059 0.859389
vt 0.032873 0.870498
vt 0.000000 0.704199
vt 0.032873 0.704199
vt 0.471741 0.859388
vt 0.305445 0.859388
vt 0.748292 0.305445
vt 0.679591 0.387870
vt 0.679591 0.305445
vt 0.875806 0.859389
vt 0.810059 0.748691
vt 0.875806 0.748691
vt 0.908680 0.859389
vt 0.908680 0.748691
vt 0.042302 0.131494
vt 0.097651 0.098620
vt 0.097651 0.131494
vt 0.262988 0.870498
vt 0.230115 0.704198
vt 0.262988 0.704198
vt 0.908680 0.914737
vt 0.131494 0.870498
vt 0.098620 0.704199
vt 0.131494 0.704199
vt 0.875806 0.914737
vt 0.042302 0.098620
vt 0.810059 0.693343
vt 0.875806 0.693343
vt 0.263697 0.098620
vt 0.208348 0.049714
vt 0.263697 0.032873
vt 0.230115 0.870498
vt 0.908680 0.693343
vt 0.097651 0.207855
vt 0.513239 0.134714
vt 0.568587 0.082453
vt 0.402542 0.235015
vt 0.097651 0.398754
vt 0.513239 0.387898
vt 0.568587 0.335315
vt 0.097651 0.360578
vt 0.777186 0.693343
vt 0.687887 0.595586
vt 0.809442 0.596246
vt 0.305445 0.484995
vt 0.357704 0.484995
vt 0.513239 0.082453
vt 0.513239 0.235015
vt 0.000000 0.870498
vt 0.091679 0.948917
vt -0.000000 0.981195
vt 0.401146 0.484995
vt 0.298720 0.536156
vt 0.298720 0.467455
vt 0.208348 0.000000
vt 0.263697 0.000000
vt 0.610884 0.651595
vt 0.305445 0.429646
vt 0.471741 0.914737
vt 0.305445 0.914737
vt 0.513239 0.335315
vt 0.401146 0.429646
vt 0.610884 0.596246
vt 0.098620 0.870498
vt 0.299932 0.693807
vt 0.267260 0.647086
vt 0.299932 0.647086
vt 0.951093 0.091588
vt 0.983765 -0.000000
vt 1.000000 0.091588
vt 0.687717 0.893944
vt 0.720389 0.985559
vt 0.687717 0.985559
vt 0.091679 0.981195
vt 0.183261 0.902776
vt 0.183261 0.949496
vt 0.402542 0.285165
vt 0.513239 0.285165
vt 0.422867 0.484995
vt 0.422867 0.429646
vt 0.422867 0.595692
vt 0.568587 0.285165
vt 0.347193 0.285165
vt 0.610890 0.285165
vt 0.422867 0.651040
vt 0.444588 0.429646
vt 0.687717 0.893944
vt 0.624463 0.969173
vt 0.624463 0.893944
vt 0.624463 0.743493
vt 0.714134 0.793643
vt 0.953373 0.488197
vt 0.953373 0.387898
vt 0.951093 0.150448
vt 0.878149 0.150448
vt 0.981624 0.946366
vt 0.839973 0.102733
vt 0.305445 0.285165
vt 0.556576 0.693343
vt 0.471741 0.793643
vt 0.471741 0.693343
vt 0.160801 0.551315
vt 0.076361 0.551315
vt 0.076361 0.601465
vt 0.444588 0.651040
vt 0.305445 0.335315
vt 0.951093 0.200598
vt 0.878149 0.200598
vt 0.777186 0.693343
vt 0.624463 0.693343
vt 0.466289 0.989966
vt 0.416139 0.914737
vt 0.466289 0.914737
vt 0.444588 0.595692
vt 0.444588 0.484995
vt 0.878144 0.488197
vt 0.816574 0.378388
vt 0.816180 0.305445
vt 0.556576 0.793643
vt 0.267260 0.551315
vt 0.687251 0.102733
vt 0.687251 0.152883
vt 0.610890 0.253184
vt 0.360793 0.914737
vt 0.416139 0.983438
vt 0.360793 0.983438
vt 0.430715 0.000000
vt 0.486060 0.000000
vt 0.610890 0.387892
vt 0.679591 0.305445
vt 0.679591 0.387892
vt 0.265712 0.981195
vt 0.183261 0.898671
vt 0.265712 0.870498
vt 0.816574 0.374146
vt 0.871923 0.335970
vt 0.871923 0.374146
vt 0.305163 0.731983
vt 0.267260 0.693807
vt 0.305163 0.693807
vt 0.568587 0.044550
vt 0.305162 0.591632
vt 0.267260 0.536156
vt 0.305162 0.536283
vt 0.305445 0.945262
vt 0.305445 0.983438
vt 0.267260 0.731983
vt 0.298720 0.770159
vt 0.267260 0.770159
vt 0.267260 0.591737
vt 0.298719 0.646981
vt 0.402542 0.050993
vt 0.610884 0.387898
vt 0.305445 0.082453
vt 0.000000 0.398754
vt 0.305445 0.131494
vt 0.072097 0.703093
vt 0.687251 -0.000000
vt 0.619914 0.978384
vt 0.827336 0.914737
vt 0.981624 0.693343
vt 0.951093 0.000000
vt 0.878144 0.588496
vt 0.953378 0.353320
vt 0.878144 0.588496
vt 0.305163 0.398754
vt 0.042302 0.000000
vt 0.471741 0.693343
vt 0.131494 0.870498
vt 0.777186 0.914737
vt -0.000000 0.870498
vt 0.748292 0.387870
vt 0.777186 0.748691
vt 0.208348 0.098620
vt 0.091679 0.902196
vt 0.267260 0.536156
vt 0.267260 0.693807
vt 0.951093 0.000000
vt 0.736624 0.893944
vt 0.091679 0.870498
vt 0.610884 0.387898
vt 0.610884 0.429646
vt 0.687515 0.969173
vt 0.777186 0.743493
vt 0.908680 0.946366
vt 0.878149 0.102733
vt 0.000000 0.704199
vt 0.610884 0.651040
vt 0.610884 0.693343
vt 0.416139 0.989966
vt 0.748292 0.378388
vt 0.610890 -0.000000
vt 0.416139 0.914737
vt 0.183261 0.954017
vt 0.816574 0.305445
vt 0.267260 0.731983
vt 0.513239 0.044550
vt 0.267260 0.591505
vt 0.298720 0.731983
vt 0.298719 0.591632
vt 0.347193 0.050993
s 0
usemtl Material
f 11/1/1 52/2/1 59/3/1
f 52/4/2 23/5/2 56/6/2
f 12/7/3 39/8/3 47/9/3
f 10/10/4 25/11/4 28/12/4
f 40/13/5 24/14/5 44/15/5
f 44/15/5 15/16/5 43/17/5
f 7/18/6 27/19/6 23/20/6
f 15/21/7 29/22/7 21/23/7
f 2/24/3 48/25/3 45/26/3
f 2/27/8 21/23/8 13/28/8
f 18/29/6 9/30/6 8/31/6
f 23/20/6 19/32/6 18/29/6
f 133/33/9 21/23/9 139/34/9
f 55/35/2 8/36/2 57/37/2
f 22/38/6 6/39/6 14/40/6
f 12/41/4 16/42/4 4/43/4
f 43/17/5 2/44/5 45/45/5
f 27/46/10 36/47/10 19/48/10
f 20/49/4 25/11/4 16/42/4
f 30/50/6 17/51/6 22/38/6
f 56/6/2 18/52/2 55/35/2
f 28/53/2 32/54/2 31/55/2
f 116/56/3 47/9/3 126/57/3
f 141/58/4 33/59/4 142/60/4
f 115/61/6 19/32/6 118/62/6
f 139/63/11 34/64/11 141/65/11
f 29/66/5 34/67/5 21/68/5
f 28/69/12 122/70/12 120/71/12
f 30/72/13 137/73/13 135/74/13
f 124/75/14 36/76/14 35/77/14
f 30/78/15 38/79/15 37/80/15
f 41/81/1 3/82/1 10/83/1
f 3/84/2 50/85/2 25/86/2
f 16/87/2 39/88/2 4/89/2
f 118/90/16 36/91/16 123/92/16
f 25/86/2 49/93/2 16/87/2
f 79/94/4 158/95/4 81/96/4
f 71/97/5 87/98/5 92/99/5
f 94/100/5 44/15/5 98/101/5
f 47/9/3 93/102/3 103/103/3
f 76/104/2 56/6/2 80/105/2
f 53/106/3 8/107/3 9/108/3
f 5/109/5 62/110/5 26/111/5
f 26/111/5 61/112/5 17/113/5
f 51/114/3 14/115/3 6/116/3
f 17/113/5 51/117/5 6/118/5
f 128/119/1 83/120/1 130/121/1
f 127/122/3 9/108/3 115/123/3
f 97/124/5 45/45/5 101/125/5
f 45/26/3 104/126/3 101/127/3
f 98/101/5 43/17/5 97/124/5
f 59/3/1 76/128/1 83/120/1
f 79/129/2 56/6/2 55/35/2
f 63/130/1 88/131/1 87/132/1
f 72/133/6 63/134/6 71/135/6
f 73/136/2 100/137/2 110/138/2
f 74/139/4 66/140/4 73/141/4
f 87/132/1 100/142/1 99/143/1
f 81/144/17 152/145/17 79/146/17
f 108/147/2 91/148/2 89/149/2
f 96/150/2 89/149/2 84/151/2
f 58/152/5 90/153/5 82/154/5
f 60/155/6 68/156/6 58/157/6
f 42/158/2 108/147/2 96/150/2
f 40/159/4 70/160/4 42/161/4
f 70/162/2 110/138/2 108/147/2
f 68/163/5 92/99/5 90/153/5
f 89/149/2 72/164/2 69/165/2
f 100/137/2 91/148/2 110/138/2
f 67/166/5 109/167/5 74/168/5
f 69/169/6 71/135/6 68/156/6
f 84/151/2 69/165/2 60/170/2
f 58/152/5 86/171/5 62/110/5
f 77/172/3 57/173/3 53/106/3
f 126/57/3 103/103/3 132/174/3
f 61/112/5 75/175/5 51/117/5
f 75/176/3 54/177/3 51/114/3
f 62/110/5 85/178/5 61/112/5
f 91/148/2 65/179/2 72/164/2
f 106/180/2 79/129/2 105/181/2
f 83/120/1 102/182/1 95/183/1
f 86/171/5 97/124/5 85/178/5
f 103/103/3 81/184/3 77/172/3
f 129/185/3 53/106/3 127/122/3
f 90/153/5 94/100/5 82/154/5
f 109/186/18 112/187/18 92/188/18
f 94/100/5 67/166/5 40/13/5
f 130/121/1 95/183/1 131/189/1
f 93/190/6 162/96/6 105/191/6
f 74/168/5 99/192/5 64/193/5
f 46/194/2 106/180/2 50/85/2
f 95/183/1 46/195/1 41/81/1
f 50/85/2 105/181/2 49/93/2
f 99/143/1 66/196/1 64/197/1
f 101/127/3 78/198/3 75/176/3
f 85/178/5 101/125/5 75/175/5
f 131/189/1 41/81/1 125/199/1
f 102/200/2 80/105/2 106/180/2
f 82/154/5 98/101/5 86/171/5
f 87/98/5 109/167/5 92/99/5
f 67/201/4 73/141/4 70/160/4
f 111/202/5 114/203/5 113/204/5
f 107/205/19 114/206/19 109/207/19
f 90/208/20 112/209/20 111/210/20
f 107/211/3 111/212/3 113/213/3
f 150/214/3 129/185/3 147/215/3
f 149/216/1 125/199/1 143/217/1
f 148/218/1 131/189/1 149/216/1
f 147/215/3 127/122/3 145/219/3
f 144/220/3 132/174/3 150/214/3
f 145/219/3 115/123/3 138/221/3
f 146/222/1 130/121/1 148/218/1
f 42/223/1 143/217/1 10/83/1
f 118/224/21 136/225/21 134/226/21
f 132/174/3 77/172/3 129/185/3
f 137/227/22 123/228/22 124/75/22
f 119/229/23 35/36/23 27/230/23
f 120/71/12 142/231/12 140/232/12
f 117/233/24 32/68/24 20/67/24
f 134/234/6 115/61/6 118/62/6
f 133/235/3 126/57/3 144/220/3
f 32/236/4 122/237/4 31/238/4
f 12/41/4 117/239/4 20/49/4
f 10/10/4 120/240/4 140/241/4
f 11/1/1 146/222/1 60/242/1
f 13/243/3 144/220/3 48/25/3
f 14/40/6 134/234/6 22/38/6
f 140/232/12 33/244/12 29/245/12
f 38/246/6 137/227/6 37/247/6
f 22/248/25 136/249/25 38/250/25
f 60/242/1 148/218/1 84/251/1
f 54/177/3 138/221/3 14/115/3
f 48/25/3 150/214/3 104/126/3
f 78/198/3 145/219/3 54/177/3
f 84/251/1 149/216/1 96/252/1
f 96/252/1 143/217/1 42/223/1
f 104/126/3 147/215/3 78/198/3
f 135/74/23 124/253/23 119/229/23
f 117/254/26 141/144/26 121/255/26
f 121/256/4 142/60/4 122/237/4
f 116/257/27 139/34/27 117/239/27
f 135/258/6 119/259/6 11/260/6
f 151/261/2 153/262/2 154/263/2
f 81/184/3 154/264/3 153/265/3
f 105/266/28 154/267/28 93/268/28
f 79/269/1 151/270/1 105/271/1
f 158/272/2 156/273/2 157/274/2
f 57/275/6 156/276/6 55/277/6
f 81/184/3 157/278/3 57/173/3
f 55/279/29 155/280/29 79/281/29
f 161/282/2 159/263/2 160/283/2
f 49/284/4 160/285/4 39/286/4
f 105/287/30 161/288/30 49/203/30
f 39/8/3 159/289/3 93/102/3
f 11/1/1 7/130/1 52/2/1
f 52/4/2 7/290/2 23/5/2
f 12/7/3 4/291/3 39/8/3
f 10/10/4 3/292/4 25/11/4
f 40/13/5 1/293/5 24/14/5
f 44/15/5 24/14/5 15/16/5
f 7/18/6 11/260/6 27/19/6
f 15/21/4 24/294/4 29/22/4
f 2/24/3 13/243/3 48/25/3
f 2/27/31 15/21/31 21/23/31
f 18/29/6 19/32/6 9/30/6
f 23/20/6 27/19/6 19/32/6
f 133/33/8 13/28/8 21/23/8
f 55/35/2 18/52/2 8/36/2
f 22/38/6 17/51/6 6/39/6
f 12/41/4 20/49/4 16/42/4
f 43/17/5 15/16/5 2/44/5
f 27/46/32 35/55/32 36/47/32
f 20/49/4 28/12/4 25/11/4
f 30/50/6 26/295/6 17/51/6
f 56/6/2 23/5/2 18/52/2
f 28/53/2 20/296/2 32/54/2
f 116/56/3 12/7/3 47/9/3
f 141/58/4 34/226/4 33/59/4
f 115/61/6 9/30/6 19/32/6
f 139/63/33 21/297/33 34/64/33
f 29/66/5 33/298/5 34/67/5
f 28/69/12 31/299/12 122/70/12
f 30/72/13 37/300/13 137/73/13
f 124/75/14 123/228/14 36/76/14
f 30/78/15 22/301/15 38/79/15
f 41/81/1 46/195/1 3/82/1
f 3/84/2 46/194/2 50/85/2
f 16/87/2 49/93/2 39/88/2
f 118/90/34 19/302/34 36/91/34
f 25/86/2 50/85/2 49/93/2
f 79/94/4 155/303/4 158/95/4
f 71/97/5 63/304/5 87/98/5
f 94/100/5 40/13/5 44/15/5
f 47/9/3 39/8/3 93/102/3
f 76/104/2 52/4/2 56/6/2
f 53/106/3 57/173/3 8/107/3
f 5/109/5 58/152/5 62/110/5
f 26/111/5 62/110/5 61/112/5
f 51/114/3 54/177/3 14/115/3
f 17/113/5 61/112/5 51/117/5
f 128/119/1 59/3/1 83/120/1
f 127/122/3 53/106/3 9/108/3
f 97/124/5 43/17/5 45/45/5
f 45/26/3 48/25/3 104/126/3
f 98/101/5 44/15/5 43/17/5
f 59/3/1 52/2/1 76/128/1
f 79/129/2 80/105/2 56/6/2
f 63/130/1 65/305/1 88/131/1
f 72/133/6 65/306/6 63/134/6
f 73/136/2 66/307/2 100/137/2
f 74/139/4 64/308/4 66/140/4
f 87/132/1 88/131/1 100/142/1
f 81/144/17 153/309/17 152/145/17
f 108/147/2 110/138/2 91/148/2
f 96/150/2 108/147/2 89/149/2
f 58/152/5 68/163/5 90/153/5
f 60/155/6 69/169/6 68/156/6
f 42/158/2 70/162/2 108/147/2
f 40/159/4 67/201/4 70/160/4
f 70/162/2 73/136/2 110/138/2
f 68/163/5 71/97/5 92/99/5
f 89/149/2 91/148/2 72/164/2
f 100/137/2 88/310/2 91/148/2
f 67/166/5 107/311/5 109/167/5
f 69/169/6 72/133/6 71/135/6
f 84/151/2 89/149/2 69/165/2
f 58/152/5 82/154/5 86/171/5
f 77/172/3 81/184/3 57/173/3
f 126/57/3 47/9/3 103/103/3
f 61/112/5 85/178/5 75/175/5
f 75/176/3 78/198/3 54/177/3
f 62/110/5 86/171/5 85/178/5
f 91/148/2 88/310/2 65/179/2
f 106/180/2 80/105/2 79/129/2
f 83/120/1 76/128/1 102/182/1
f 86/171/5 98/101/5 97/124/5
f 103/103/3 93/102/3 81/184/3
f 129/185/3 77/172/3 53/106/3
f 90/153/5 107/311/5 94/100/5
f 109/186/18 114/312/18 112/187/18
f 94/100/5 107/311/5 67/166/5
f 130/121/1 83/120/1 95/183/1
f 93/190/6 159/313/6 162/96/6
f 74/168/5 109/167/5 99/192/5
f 46/194/2 102/200/2 106/180/2
f 95/183/1 102/182/1 46/195/1
f 50/85/2 106/180/2 105/181/2
f 99/143/1 100/142/1 66/196/1
f 101/127/3 104/126/3 78/198/3
f 85/178/5 97/124/5 101/125/5
f 131/189/1 95/183/1 41/81/1
f 102/200/2 76/104/2 80/105/2
f 82/154/5 94/100/5 98/101/5
f 87/98/5 99/192/5 109/167/5
f 67/201/4 74/139/4 73/141/4
f 111/202/5 112/314/5 114/203/5
f 107/205/19 113/315/19 114/206/19
f 90/208/20 92/316/20 112/209/20
f 107/211/3 90/317/3 111/212/3
f 150/214/3 132/174/3 129/185/3
f 149/216/1 131/189/1 125/199/1
f 148/218/1 130/121/1 131/189/1
f 147/215/3 129/185/3 127/122/3
f 144/220/3 126/57/3 132/174/3
f 145/219/3 127/122/3 115/123/3
f 146/222/1 128/119/1 130/121/1
f 125/199/1 41/81/1 10/83/1
f 10/83/1 1/318/1 42/223/1
f 1/318/1 40/319/1 42/223/1
f 143/217/1 125/199/1 10/83/1
f 118/224/35 123/320/35 136/225/35
f 132/174/3 103/103/3 77/172/3
f 137/227/6 136/321/6 123/228/6
f 119/229/36 124/253/36 35/36/36
f 120/71/12 122/70/12 142/231/12
f 117/233/24 121/322/24 32/68/24
f 134/234/6 138/323/6 115/61/6
f 133/235/3 116/56/3 126/57/3
f 32/236/4 121/256/4 122/237/4
f 12/41/4 116/257/4 117/239/4
f 24/294/4 1/324/4 29/22/4
f 1/324/4 10/10/4 140/241/4
f 29/22/4 1/324/4 140/241/4
f 10/10/4 28/12/4 120/240/4
f 58/325/1 5/326/1 60/242/1
f 5/326/1 11/1/1 60/242/1
f 11/1/1 59/3/1 128/119/1
f 11/1/1 128/119/1 146/222/1
f 13/243/3 133/235/3 144/220/3
f 14/40/6 138/323/6 134/234/6
f 140/232/12 142/231/12 33/244/12
f 38/246/6 136/321/6 137/227/6
f 22/248/25 134/327/25 136/249/25
f 60/242/1 146/222/1 148/218/1
f 54/177/3 145/219/3 138/221/3
f 48/25/3 144/220/3 150/214/3
f 78/198/3 147/215/3 145/219/3
f 84/251/1 148/218/1 149/216/1
f 96/252/1 149/216/1 143/217/1
f 104/126/3 150/214/3 147/215/3
f 135/74/37 137/73/37 124/253/37
f 117/254/38 139/328/38 141/144/38
f 121/256/4 141/58/4 142/60/4
f 116/257/39 133/33/39 139/34/39
f 11/260/6 5/329/6 135/258/6
f 5/329/6 26/295/6 30/50/6
f 5/329/6 30/50/6 135/258/6
f 119/259/6 27/19/6 11/260/6
f 151/261/2 152/330/2 153/262/2
f 81/184/3 93/102/3 154/264/3
f 105/266/28 151/18/28 154/267/28
f 79/269/1 152/331/1 151/270/1
f 158/272/2 155/332/2 156/273/2
f 57/275/6 157/333/6 156/276/6
f 81/184/3 158/334/3 157/278/3
f 55/279/29 156/335/29 155/280/29
f 161/282/2 162/261/2 159/263/2
f 49/284/4 161/336/4 160/285/4
f 105/287/30 162/337/30 161/288/30
f 39/8/3 160/338/3 159/289/3
